<?xml version="1.0" ?><svg xmlns="http://www.w3.org/2000/svg" xmlns:xlink="http://www.w3.org/1999/xlink" version="1.1" viewBox="0 0 32 32" style="enable-background:new 0 0 32 32;" xml:space="preserve"><style type="text/css">
	.st0{display:none;}
	.st1{display:inline;}
	.st2{fill:#CDF6F9;}
	.st3{fill:#FFFFFF;}
	.st4{fill:#1A83A8;}
</style><g id="Grid" class="st0"/><g id="Credit_Card"/><g id="Receipt"/><g id="No_Balance"/><g id="Online_Payment"><path class="st3" d="M19.09,2c-0.9,0-1.67,0.64-1.84,1.52l-0.14,0.71c-0.17,0.89-0.95,1.52-1.85,1.52h-2.97   c-0.9,0-1.67-0.63-1.85-1.52L10.3,3.52C10.13,2.64,9.36,2,8.46,2H19.09z"/><path class="st2" d="M23.34,5.14v21.72c0,1.73-1.41,3.14-3.16,3.14H7.37c-1.75,0-3.15-1.41-3.15-3.14V5.14C4.22,3.41,5.62,2,7.37,2   h1.09c0.9,0,1.67,0.64,1.84,1.52l0.14,0.71c0.18,0.89,0.95,1.52,1.85,1.52h2.97c0.9,0,1.68-0.63,1.85-1.52l0.14-0.71   C17.42,2.64,18.19,2,19.09,2h1.09C21.93,2,23.34,3.41,23.34,5.14z"/><path class="st3" d="M26.117,20.455h-8.862c-0.918,0-1.663-0.744-1.663-1.663v-5.584c0-0.918,0.744-1.663,1.663-1.663h8.862   c0.918,0,1.663,0.744,1.663,1.663v5.584C27.78,19.71,27.036,20.455,26.117,20.455z"/><path class="st4" d="M12.439,26c0,0.497,0.403,0.9,0.9,0.9h0.874c0.497,0,0.9-0.403,0.9-0.9s-0.403-0.9-0.9-0.9H13.34   C12.843,25.1,12.439,25.503,12.439,26z"/><path class="st4" d="M23.34,23.06c-0.497,0-0.9,0.403-0.9,0.9v2.9c0,1.235-1.014,2.24-2.26,2.24H7.37   c-1.241,0-2.25-1.005-2.25-2.24V5.14c0-1.235,1.009-2.24,2.25-2.24h1.076c0.004,0,0.008,0.002,0.012,0.002   c0.468,0,0.873,0.333,0.964,0.792l0.14,0.711c0.255,1.302,1.402,2.246,2.729,2.246h2.974c1.326,0,2.474-0.944,2.729-2.246   l0.14-0.711c0.091-0.459,0.496-0.793,0.964-0.793c0.004,0,0.008-0.002,0.012-0.002h1.072c1.246,0,2.26,1.005,2.26,2.24v2.9   c0,0.497,0.403,0.9,0.9,0.9s0.9-0.403,0.9-0.9v-2.9c0-2.228-1.821-4.04-4.061-4.04H7.37c-2.233,0-4.051,1.813-4.051,4.04v21.72   c0,2.228,1.817,4.04,4.051,4.04h12.81c2.239,0,4.061-1.813,4.061-4.04v-2.9C24.24,23.463,23.837,23.06,23.34,23.06z M16.366,3.348   l-0.14,0.712c-0.09,0.459-0.495,0.792-0.963,0.792H12.29c-0.468,0-0.873-0.333-0.963-0.792l-0.14-0.712   c-0.03-0.155-0.075-0.304-0.13-0.448h5.439C16.442,3.044,16.397,3.193,16.366,3.348z"/><path class="st4" d="M26.117,10.645h-8.861c-1.413,0-2.563,1.15-2.563,2.563v5.584c0,1.413,1.15,2.563,2.563,2.563h8.861   c1.413,0,2.563-1.15,2.563-2.563v-5.584C28.681,11.795,27.53,10.645,26.117,10.645z M17.256,12.445h8.861   c0.421,0,0.763,0.342,0.763,0.763v0.726H16.493v-0.726C16.493,12.787,16.835,12.445,17.256,12.445z M26.117,19.555h-8.861   c-0.421,0-0.763-0.342-0.763-0.763v-3.059H26.88v3.059C26.88,19.213,26.538,19.555,26.117,19.555z"/></g><g id="Wallet_1_"/><g id="Balance_Limit"/><g id="Invoice"/><g id="Money"/><g id="Payment"/><g id="Coin"/><g id="Insert_Card"/><g id="Global_Payment"/><g id="Bill"/><g id="Transaction"/><g id="Payment_Method"/><g id="Secure_Payment"/><g id="Add_Payment"/><g id="Reduce_Payment"/><g id="ATM"/><g id="Transfer"/><g id="Bank"/><g id="Money_Bag"/><g id="Online_Payment_1_"/><g id="Online_Banking"/><g id="Banking"/></svg>