<?xml version="1.0" encoding="UTF-8" standalone="no"?>
<!DOCTYPE svg PUBLIC "-//W3C//DTD SVG 1.1//EN" "http://www.w3.org/Graphics/SVG/1.1/DTD/svg11.dtd">
<svg xmlns="http://www.w3.org/2000/svg" version="1.1" viewBox="0.00 0.00 200.00 200.00">
<g stroke-width="2.00" fill="none" stroke-linecap="butt">
<path stroke="#9f8847" vector-effect="non-scaling-stroke" d="
  M 100.26 4.32
  Q 107.39 6.64 110.82 10.95"
/>
<path stroke="#3a3837" vector-effect="non-scaling-stroke" d="
  M 110.82 10.95
  Q 109.94 11.97 108.98 12.41
  Q 108.54 12.61 108.08 12.46
  Q 106.18 11.82 104.99 11.75
  Q 94.06 11.19 83.19 12.48
  Q 82.46 12.57 80.88 13.09
  C 77.58 14.17 74.28 14.45 70.52 15.91
  C 67.61 17.04 64.83 17.79 62.00 19.25
  C 59.46 20.55 56.77 21.48 54.44 22.96
  C 50.85 25.25 47.36 27.75 43.66 29.84
  Q 41.71 30.94 39.93 33.32
  Q 38.57 35.14 33.62 39.57
  Q 33.24 39.91 33.15 40.41
  Q 32.92 41.58 31.73 42.02
  A 1.29 1.19 -79.3 0 0 31.19 42.42
  Q 28.32 46.01 25.36 49.51
  C 22.20 53.24 20.46 57.26 18.61 62.08
  A 0.91 0.91 0.0 0 1 18.03 62.62
  Q 17.61 62.75 17.62 63.10
  Q 17.64 63.63 17.28 64.03
  Q 16.49 64.90 15.32 65.45"
/>
<path stroke="#9f8847" vector-effect="non-scaling-stroke" d="
  M 15.32 65.45
  Q 13.13 60.09 15.51 53.13"
/>
<path stroke="#2f2c2d" vector-effect="non-scaling-stroke" d="
  M 111.47 12.50
  L 110.36 14.82
  Q 110.14 15.29 109.65 15.45
  C 107.21 16.26 105.06 15.37 103.24 15.29
  C 97.23 15.02 91.01 15.14 85.10 16.40
  C 82.26 17.01 79.81 17.01 77.04 18.22
  A 1.76 1.70 -54.2 0 1 76.21 18.37
  Q 75.54 18.32 74.97 18.53
  Q 69.19 20.55 63.54 22.91
  Q 58.86 24.86 54.86 27.17
  Q 49.24 30.42 46.87 32.63
  C 42.93 36.31 38.25 39.99 35.14 43.63
  Q 30.30 49.27 23.95 59.83
  C 23.14 61.18 23.09 62.30 22.01 63.72
  Q 21.32 64.63 21.03 65.75
  Q 20.90 66.22 20.58 66.60
  Q 19.64 67.70 19.34 70.17"
/>
<path stroke="#998241" vector-effect="non-scaling-stroke" d="
  M 19.34 70.17
  Q 16.61 68.28 15.32 65.45"
/>
<path stroke="#998241" vector-effect="non-scaling-stroke" d="
  M 145.72 16.58
  Q 154.14 24.02 154.60 34.85"
/>
<path stroke="#8e7737" vector-effect="non-scaling-stroke" d="
  M 154.60 34.85
  L 154.09 41.41"
/>
<path stroke="#ffcd2d" vector-effect="non-scaling-stroke" d="
  M 154.09 41.41
  Q 153.17 39.75 151.26 38.75
  A 1.87 1.82 -2.4 0 1 150.58 38.14
  C 149.57 36.65 149.08 36.30 147.23 35.48
  Q 145.57 34.75 144.49 33.09
  Q 144.25 32.72 143.87 32.50
  C 139.02 29.80 134.02 26.73 129.09 24.85
  Q 124.99 23.29 120.74 22.15
  Q 120.43 22.07 120.38 21.79
  Q 120.31 21.36 119.88 21.31
  L 113.56 20.58
  Q 112.87 20.50 112.87 21.20
  L 112.87 22.95
  Q 112.87 23.53 112.30 23.64
  L 111.81 23.74
  Q 111.62 23.78 111.62 23.59
  Q 111.63 23.45 111.68 23.30"
/>
<path stroke="#8e7737" vector-effect="non-scaling-stroke" d="
  M 111.68 23.30
  L 112.12 20.78"
/>
<path stroke="#947c3d" vector-effect="non-scaling-stroke" d="
  M 112.12 20.78
  Q 113.21 17.00 111.47 12.50"
/>
<path stroke="#998241" vector-effect="non-scaling-stroke" d="
  M 111.47 12.50
  L 110.82 10.95"
/>
<path stroke="#998241" vector-effect="non-scaling-stroke" d="
  M 18.56 118.05
  Q 13.58 116.02 9.39 111.98"
/>
<path stroke="#9f8847" vector-effect="non-scaling-stroke" d="
  M 9.39 111.98
  Q 4.75 107.23 3.26 100.27"
/>
<path stroke="#232122" vector-effect="non-scaling-stroke" d="
  M 112.12 20.78
  Q 111.97 20.15 110.66 21.52
  Q 110.28 21.91 109.73 21.93
  C 105.54 22.04 102.12 22.22 97.14 22.30
  Q 91.55 22.39 84.39 24.13
  Q 64.77 28.90 50.22 39.76
  A 0.58 0.49 18.8 0 1 49.99 39.85
  Q 49.33 39.96 49.19 40.51
  Q 48.93 41.56 47.87 41.88
  A 1.13 1.00 -73.5 0 0 47.41 42.17
  C 45.56 44.09 43.38 45.76 41.78 47.81
  Q 39.23 51.07 36.63 54.29
  Q 34.58 56.82 32.04 61.15
  Q 29.33 65.77 25.59 70.22
  Q 25.21 70.67 25.56 71.07
  Q 25.61 71.13 25.53 71.13
  Q 25.39 71.13 25.25 71.13
  Q 24.99 71.13 25.01 71.38
  Q 25.06 72.48 26.49 72.93"
/>
<path stroke="#947719" vector-effect="non-scaling-stroke" d="
  M 26.49 72.93
  L 25.38 72.86"
/>
<path stroke="#947c3d" vector-effect="non-scaling-stroke" d="
  M 25.38 72.86
  Q 21.66 71.86 19.34 70.17"
/>
<path stroke="#8e7213" vector-effect="non-scaling-stroke" d="
  M 154.09 41.41
  L 152.17 48.80"
/>
<path stroke="#836809" vector-effect="non-scaling-stroke" d="
  M 152.17 48.80
  Q 148.37 59.01 141.27 68.27
  C 117.53 99.25 71.17 124.10 31.70 121.48"
/>
<path stroke="#8e7213" vector-effect="non-scaling-stroke" d="
  M 31.70 121.48
  L 19.98 118.74"
/>
<path stroke="#9a7d1d" vector-effect="non-scaling-stroke" d="
  M 19.98 118.74
  L 18.56 118.05"
/>
<path stroke="#ffcd2d" vector-effect="non-scaling-stroke" d="
  M 18.56 118.05
  Q 19.36 118.32 19.37 117.76
  Q 19.39 116.75 18.55 116.62
  Q 18.10 116.55 17.89 116.15
  L 16.37 113.20
  Q 16.14 112.76 16.28 112.28
  Q 16.82 110.43 16.62 108.75
  Q 16.06 104.04 16.12 100.34
  Q 16.12 100.25 16.06 100.18
  Q 15.98 100.06 15.88 99.97
  Q 15.64 99.73 15.69 99.40
  Q 16.08 96.97 15.80 94.48
  Q 15.58 94.38 15.84 94.29
  Q 16.17 94.18 16.21 93.84
  Q 17.37 85.12 19.15 76.50
  Q 19.28 75.87 20.22 74.72
  Q 20.56 74.31 20.30 73.84
  Q 20.18 73.62 19.94 73.47
  A 0.23 0.23 0.0 0 1 20.00 73.06
  Q 20.70 72.86 21.02 72.56
  Q 21.23 72.36 21.49 72.49
  Q 23.18 73.37 25.38 72.86"
/>
<path stroke="#836809" vector-effect="non-scaling-stroke" d="
  M 30.38 73.54
  C 58.25 74.77 96.87 52.31 109.92 27.75"
/>
<path stroke="#998241" vector-effect="non-scaling-stroke" d="
  M 181.28 52.50
  Q 185.28 67.40 180.31 81.74"
/>
<path stroke="#292727" vector-effect="non-scaling-stroke" d="
  M 180.31 81.74
  Q 179.94 81.55 179.90 81.24
  Q 179.86 80.93 179.89 80.57
  Q 179.90 80.34 179.74 80.50
  L 179.48 80.77
  A 0.31 0.30 -23.4 0 1 178.96 80.57
  Q 178.91 79.46 178.50 78.45
  Q 178.32 78.00 178.02 77.62
  Q 177.12 76.46 177.64 75.03
  A 1.18 1.18 0.0 0 0 177.54 74.02
  C 176.11 71.65 176.01 69.13 174.85 66.86
  C 173.87 64.95 173.08 62.40 171.89 60.60
  C 170.48 58.46 169.75 56.86 168.65 54.92
  C 168.16 54.05 167.30 53.41 166.80 52.44
  C 165.70 50.34 163.48 47.58 161.92 45.83
  Q 158.75 42.28 155.61 38.66
  A 1.17 1.16 27.4 0 1 155.33 37.78
  Q 155.50 35.98 154.60 34.85"
/>
<path stroke="#8e7737" vector-effect="non-scaling-stroke" d="
  M 180.31 81.74
  L 176.41 91.51"
/>
<path stroke="#8e7213" vector-effect="non-scaling-stroke" d="
  M 176.41 91.51
  L 172.81 98.10"
/>
<path stroke="#121213" vector-effect="non-scaling-stroke" d="
  M 172.81 98.10
  Q 172.53 97.38 172.86 96.50
  Q 172.90 96.39 172.81 96.46
  Q 172.70 96.53 172.58 96.59
  Q 172.48 96.64 172.42 96.55
  C 171.82 95.61 171.15 94.93 171.09 93.75
  Q 170.91 90.04 170.17 86.41
  Q 170.07 85.91 170.21 85.42
  Q 170.55 84.29 170.36 83.49
  Q 167.33 70.76 160.15 59.93
  C 159.53 58.98 158.45 58.12 157.86 56.94
  Q 156.97 55.15 156.48 54.54
  Q 154.13 51.62 152.17 48.80"
/>
<path stroke="#8e7213" vector-effect="non-scaling-stroke" d="
  M 111.68 23.30
  L 109.92 27.75"
/>
<path stroke="#121213" vector-effect="non-scaling-stroke" d="
  M 109.92 27.75
  Q 109.79 27.27 108.54 27.56
  Q 108.05 27.67 107.74 27.26
  Q 107.18 26.50 105.99 26.62
  Q 103.96 26.82 102.48 27.07
  C 98.60 27.71 94.50 27.32 90.56 27.56
  C 89.32 27.63 88.21 28.35 86.70 28.08
  Q 86.62 28.07 86.62 28.15
  Q 86.62 28.28 86.62 28.41
  Q 86.62 28.51 86.52 28.51
  Q 84.51 28.69 78.25 30.65
  Q 73.43 32.16 71.68 33.11
  Q 71.24 33.35 70.74 33.36
  Q 70.31 33.37 70.01 33.51
  C 67.49 34.62 64.60 36.15 61.40 38.09
  Q 59.32 39.35 57.27 40.67
  Q 55.58 41.76 53.47 43.65
  C 51.73 45.21 49.83 46.49 48.20 48.22
  Q 47.37 49.11 46.39 49.86
  Q 46.01 50.16 45.90 50.62
  Q 45.81 51.00 45.51 51.22
  Q 45.07 51.54 45.02 51.59
  Q 39.22 57.39 35.87 62.75
  Q 31.96 69.00 29.65 72.12
  Q 29.25 72.65 29.52 72.94
  Q 29.78 73.21 30.38 73.54"
/>
<path stroke="#8e7213" vector-effect="non-scaling-stroke" d="
  M 30.38 73.54
  L 26.49 72.93"
/>
<path stroke="#3a3837" vector-effect="non-scaling-stroke" d="
  M 9.39 111.98
  Q 8.49 113.76 10.45 115.78
  A 1.62 1.60 -75.2 0 1 10.84 116.46
  L 14.90 131.27
  Q 15.01 131.67 15.33 131.92
  Q 16.15 132.57 15.78 133.18
  Q 15.53 133.61 15.77 134.05
  Q 19.66 141.14 23.50 148.28
  Q 23.87 148.97 25.50 150.36
  A 1.46 1.42 15.1 0 1 25.97 151.15
  C 26.23 152.40 27.39 152.74 27.96 153.43
  Q 28.69 154.31 29.40 155.22
  Q 29.79 155.72 30.30 156.10
  Q 31.99 157.32 31.82 158.54"
/>
<path stroke="#292727" vector-effect="non-scaling-stroke" d="
  M 19.98 118.74
  Q 19.83 118.80 19.74 118.90
  Q 19.68 118.98 19.72 119.08
  C 20.54 120.91 20.75 123.13 21.62 124.81
  C 22.95 127.40 23.66 130.06 24.72 132.75
  C 24.92 133.24 25.32 133.52 25.60 134.08
  Q 28.01 138.94 31.12 143.44
  C 31.57 144.08 32.15 144.27 32.46 145.01
  Q 33.00 146.27 33.05 146.35
  Q 37.69 153.38 42.81 157.79
  Q 44.33 159.10 44.71 159.61
  A 0.86 0.85 76.3 0 0 45.23 159.93
  Q 46.12 160.10 46.25 160.91
  Q 46.31 161.31 45.92 161.36
  L 42.83 161.73"
/>
<path stroke="#836809" vector-effect="non-scaling-stroke" d="
  M 172.81 98.10
  C 151.00 132.96 108.18 158.84 67.55 162.79"
/>
<path stroke="#121213" vector-effect="non-scaling-stroke" d="
  M 67.55 162.79
  Q 67.46 162.40 67.01 162.37
  Q 66.97 162.37 67.01 162.36
  Q 67.34 162.27 67.48 161.93
  Q 67.55 161.76 67.39 161.67
  Q 67.28 161.60 67.11 161.63
  Q 67.24 161.64 67.37 161.56
  Q 67.55 161.46 67.36 161.37
  Q 61.07 158.36 58.26 156.22
  Q 51.22 150.90 43.71 142.06
  C 42.53 140.68 41.62 138.97 40.36 137.47
  C 39.39 136.30 39.16 134.86 37.95 133.72
  A 1.78 1.72 17.5 0 1 37.43 132.76
  Q 37.16 131.27 36.08 130.31
  Q 35.70 129.98 35.49 129.53
  L 31.70 121.48"
/>
<path stroke="#9f8847" vector-effect="non-scaling-stroke" d="
  M 194.03 96.53
  C 194.57 106.05 190.62 117.16 186.19 125.43"
/>
<path stroke="#998241" vector-effect="non-scaling-stroke" d="
  M 186.19 125.43
  C 166.69 160.53 126.68 184.47 87.23 188.30"
/>
<path stroke="#9f8847" vector-effect="non-scaling-stroke" d="
  M 87.23 188.30
  C 74.27 188.84 63.01 187.94 50.92 182.86"
/>
<path stroke="#9f8847" vector-effect="non-scaling-stroke" d="
  M 16.22 147.78
  Q 22.98 154.76 31.82 158.54"
/>
<path stroke="#998241" vector-effect="non-scaling-stroke" d="
  M 31.82 158.54
  L 42.83 161.73"
/>
<path stroke="#8e7737" vector-effect="non-scaling-stroke" d="
  M 42.83 161.73
  L 49.59 162.84"
/>
<path stroke="#ffcd2d" vector-effect="non-scaling-stroke" d="
  M 49.59 162.84
  Q 48.89 163.30 48.85 163.74
  Q 48.80 164.31 49.37 164.39
  Q 51.49 164.70 52.92 166.06
  Q 54.83 167.89 55.61 168.31
  Q 59.51 170.38 63.56 172.12
  Q 63.70 172.18 68.06 174.39
  C 74.75 177.77 82.98 179.67 89.49 180.20
  Q 102.42 181.24 115.16 178.99
  Q 117.32 178.61 120.34 177.20
  Q 122.86 176.03 125.54 175.29
  C 127.60 174.72 129.90 173.44 132.33 173.19
  Q 132.84 173.14 133.19 172.78
  Q 134.36 171.61 136.05 171.39
  Q 136.48 171.33 136.65 170.94
  Q 136.80 170.58 137.16 170.62
  Q 137.48 170.65 137.72 170.43
  Q 138.41 169.80 139.21 169.62
  Q 139.49 169.56 139.61 169.29
  Q 140.01 168.38 141.03 168.30
  Q 141.48 168.27 141.85 168.01
  L 143.96 166.47
  Q 144.09 166.38 144.25 166.38
  Q 144.37 166.38 144.50 166.38
  Q 144.63 166.38 144.63 166.28
  Q 144.63 166.16 144.62 166.02
  Q 144.62 165.96 144.67 165.92
  Q 146.61 164.48 148.56 163.04
  Q 148.98 162.72 149.48 162.59
  Q 150.82 162.23 151.57 161.01
  Q 151.65 160.88 151.76 160.43
  Q 151.86 160.04 152.22 159.88
  Q 152.61 159.70 152.81 159.31
  Q 153.49 157.97 154.89 157.35
  A 2.87 2.74 -78.3 0 0 155.73 156.77
  L 157.75 154.75
  Q 158.15 154.35 158.69 154.53
  Q 159.67 154.85 159.96 153.72
  Q 160.15 153.00 160.15 152.98
  Q 160.00 152.57 160.26 152.26
  Q 161.66 150.58 162.46 149.03
  A 1.38 1.35 89.5 0 1 163.01 148.46
  Q 164.64 147.56 165.35 145.49
  Q 165.55 144.91 166.15 144.76
  Q 166.61 144.64 166.72 144.19
  Q 167.72 140.28 170.28 137.85
  Q 170.64 137.51 170.66 137.03
  Q 170.69 136.53 171.01 136.13
  C 172.27 134.54 172.11 132.72 172.66 131.29
  Q 173.55 129.00 174.69 126.82
  C 175.14 125.97 175.05 125.15 175.47 124.33
  Q 176.23 122.84 176.31 122.59
  C 179.39 112.91 179.21 104.13 179.59 92.46
  Q 179.61 92.00 179.42 91.58
  Q 178.95 90.51 179.15 89.37
  Q 179.18 89.19 179.01 89.27
  Q 178.51 89.49 178.15 89.76
  Q 177.79 90.03 177.72 90.48
  Q 177.62 91.09 176.41 91.51"
/>
<path stroke="#8e7213" vector-effect="non-scaling-stroke" d="
  M 49.59 162.84
  Q 58.53 163.77 67.55 162.79"
/>
<path stroke="#3a3837" vector-effect="non-scaling-stroke" d="
  M 87.23 188.30
  L 90.64 190.27
  Q 91.07 190.52 91.56 190.57
  C 94.74 190.89 97.63 191.42 100.85 191.16
  Q 106.79 190.70 112.74 190.38
  Q 113.61 190.33 114.71 190.00
  C 116.35 189.50 117.81 189.41 119.50 188.74
  Q 120.98 188.16 122.55 187.98
  C 124.97 187.71 126.74 186.64 129.10 186.36
  C 130.77 186.16 131.55 185.62 132.59 184.47
  Q 132.78 184.26 133.02 184.39
  Q 133.15 184.45 133.28 184.53
  Q 133.48 184.66 133.70 184.57
  C 135.77 183.72 138.71 182.88 140.34 181.34
  Q 141.12 180.62 142.05 180.14
  Q 144.46 178.92 144.73 178.73
  C 147.56 176.85 150.72 175.31 153.26 173.33
  C 155.95 171.25 159.10 169.01 161.02 166.53
  A 1.81 1.76 -81.4 0 1 161.77 165.96
  Q 164.04 165.06 164.87 163.50
  Q 165.48 162.36 166.21 161.85
  Q 167.09 161.23 167.14 161.18
  Q 169.04 159.39 170.58 157.28
  A 2.32 2.14 -84.2 0 1 171.28 156.66
  Q 173.34 155.52 173.93 153.20
  Q 174.07 152.65 174.47 152.24
  C 176.76 149.94 177.55 147.80 179.29 145.55
  C 181.32 142.93 181.47 139.26 183.24 136.39
  Q 183.47 136.01 183.37 135.58
  Q 183.09 134.38 184.08 133.81
  Q 184.53 133.56 184.37 133.07
  C 183.12 129.22 187.06 128.76 186.19 125.43"
/>
</g>
<path fill="#3f3e3d" d="
  M 100.26 4.32
  Q 107.39 6.64 110.82 10.95
  Q 109.94 11.97 108.98 12.41
  Q 108.54 12.61 108.08 12.46
  Q 106.18 11.82 104.99 11.75
  Q 94.06 11.19 83.19 12.48
  Q 82.46 12.57 80.88 13.09
  C 77.58 14.17 74.28 14.45 70.52 15.91
  C 67.61 17.04 64.83 17.79 62.00 19.25
  C 59.46 20.55 56.77 21.48 54.44 22.96
  C 50.85 25.25 47.36 27.75 43.66 29.84
  Q 41.71 30.94 39.93 33.32
  Q 38.57 35.14 33.62 39.57
  Q 33.24 39.91 33.15 40.41
  Q 32.92 41.58 31.73 42.02
  A 1.29 1.19 -79.3 0 0 31.19 42.42
  Q 28.32 46.01 25.36 49.51
  C 22.20 53.24 20.46 57.26 18.61 62.08
  A 0.91 0.91 0.0 0 1 18.03 62.62
  Q 17.61 62.75 17.62 63.10
  Q 17.64 63.63 17.28 64.03
  Q 16.49 64.90 15.32 65.45
  Q 13.13 60.09 15.51 53.13
  C 30.68 23.07 66.85 2.45 100.26 4.32
  Z"
/>
<path fill="#fed251" d="
  M 100.26 4.32
  Q 124.72 4.56 145.72 16.58
  Q 154.14 24.02 154.60 34.85
  L 154.09 41.41
  Q 153.17 39.75 151.26 38.75
  A 1.87 1.82 -2.4 0 1 150.58 38.14
  C 149.57 36.65 149.08 36.30 147.23 35.48
  Q 145.57 34.75 144.49 33.09
  Q 144.25 32.72 143.87 32.50
  C 139.02 29.80 134.02 26.73 129.09 24.85
  Q 124.99 23.29 120.74 22.15
  Q 120.43 22.07 120.38 21.79
  Q 120.31 21.36 119.88 21.31
  L 113.56 20.58
  Q 112.87 20.50 112.87 21.20
  L 112.87 22.95
  Q 112.87 23.53 112.30 23.64
  L 111.81 23.74
  Q 111.62 23.78 111.62 23.59
  Q 111.63 23.45 111.68 23.30
  L 112.12 20.78
  Q 113.21 17.00 111.47 12.50
  L 110.82 10.95
  Q 107.39 6.64 100.26 4.32
  Z"
/>
<path fill="#343231" d="
  M 110.82 10.95
  L 111.47 12.50
  L 110.36 14.82
  Q 110.14 15.29 109.65 15.45
  C 107.21 16.26 105.06 15.37 103.24 15.29
  C 97.23 15.02 91.01 15.14 85.10 16.40
  C 82.26 17.01 79.81 17.01 77.04 18.22
  A 1.76 1.70 -54.2 0 1 76.21 18.37
  Q 75.54 18.32 74.97 18.53
  Q 69.19 20.55 63.54 22.91
  Q 58.86 24.86 54.86 27.17
  Q 49.24 30.42 46.87 32.63
  C 42.93 36.31 38.25 39.99 35.14 43.63
  Q 30.30 49.27 23.95 59.83
  C 23.14 61.18 23.09 62.30 22.01 63.72
  Q 21.32 64.63 21.03 65.75
  Q 20.90 66.22 20.58 66.60
  Q 19.64 67.70 19.34 70.17
  Q 16.61 68.28 15.32 65.45
  Q 16.49 64.90 17.28 64.03
  Q 17.64 63.63 17.62 63.10
  Q 17.61 62.75 18.03 62.62
  A 0.91 0.91 0.0 0 0 18.61 62.08
  C 20.46 57.26 22.20 53.24 25.36 49.51
  Q 28.32 46.01 31.19 42.42
  A 1.29 1.19 -79.3 0 1 31.73 42.02
  Q 32.92 41.58 33.15 40.41
  Q 33.24 39.91 33.62 39.57
  Q 38.57 35.14 39.93 33.32
  Q 41.71 30.94 43.66 29.84
  C 47.36 27.75 50.85 25.25 54.44 22.96
  C 56.77 21.48 59.46 20.55 62.00 19.25
  C 64.83 17.79 67.61 17.04 70.52 15.91
  C 74.28 14.45 77.58 14.17 80.88 13.09
  Q 82.46 12.57 83.19 12.48
  Q 94.06 11.19 104.99 11.75
  Q 106.18 11.82 108.08 12.46
  Q 108.54 12.61 108.98 12.41
  Q 109.94 11.97 110.82 10.95
  Z"
/>
<path fill="#292628" d="
  M 111.47 12.50
  Q 113.21 17.00 112.12 20.78
  Q 111.97 20.15 110.66 21.52
  Q 110.28 21.91 109.73 21.93
  C 105.54 22.04 102.12 22.22 97.14 22.30
  Q 91.55 22.39 84.39 24.13
  Q 64.77 28.90 50.22 39.76
  A 0.58 0.49 18.8 0 1 49.99 39.85
  Q 49.33 39.96 49.19 40.51
  Q 48.93 41.56 47.87 41.88
  A 1.13 1.00 -73.5 0 0 47.41 42.17
  C 45.56 44.09 43.38 45.76 41.78 47.81
  Q 39.23 51.07 36.63 54.29
  Q 34.58 56.82 32.04 61.15
  Q 29.33 65.77 25.59 70.22
  Q 25.21 70.67 25.56 71.07
  Q 25.61 71.13 25.53 71.13
  Q 25.39 71.13 25.25 71.13
  Q 24.99 71.13 25.01 71.38
  Q 25.06 72.48 26.49 72.93
  L 25.38 72.86
  Q 21.66 71.86 19.34 70.17
  Q 19.64 67.70 20.58 66.60
  Q 20.90 66.22 21.03 65.75
  Q 21.32 64.63 22.01 63.72
  C 23.09 62.30 23.14 61.18 23.95 59.83
  Q 30.30 49.27 35.14 43.63
  C 38.25 39.99 42.93 36.31 46.87 32.63
  Q 49.24 30.42 54.86 27.17
  Q 58.86 24.86 63.54 22.91
  Q 69.19 20.55 74.97 18.53
  Q 75.54 18.32 76.21 18.37
  A 1.76 1.70 -54.2 0 0 77.04 18.22
  C 79.81 17.01 82.26 17.01 85.10 16.40
  C 91.01 15.14 97.23 15.02 103.24 15.29
  C 105.06 15.37 107.21 16.26 109.65 15.45
  Q 110.14 15.29 110.36 14.82
  L 111.47 12.50
  Z"
/>
<path fill="#343231" d="
  M 145.72 16.58
  Q 147.57 17.12 149.17 18.35
  C 151.72 20.30 154.76 22.09 157.00 23.85
  C 166.74 31.48 176.05 41.27 181.28 52.50
  Q 185.28 67.40 180.31 81.74
  Q 179.94 81.55 179.90 81.24
  Q 179.86 80.93 179.89 80.57
  Q 179.90 80.34 179.74 80.50
  L 179.48 80.77
  A 0.31 0.30 -23.4 0 1 178.96 80.57
  Q 178.91 79.46 178.50 78.45
  Q 178.32 78.00 178.02 77.62
  Q 177.12 76.46 177.64 75.03
  A 1.18 1.18 0.0 0 0 177.54 74.02
  C 176.11 71.65 176.01 69.13 174.85 66.86
  C 173.87 64.95 173.08 62.40 171.89 60.60
  C 170.48 58.46 169.75 56.86 168.65 54.92
  C 168.16 54.05 167.30 53.41 166.80 52.44
  C 165.70 50.34 163.48 47.58 161.92 45.83
  Q 158.75 42.28 155.61 38.66
  A 1.17 1.16 27.4 0 1 155.33 37.78
  Q 155.50 35.98 154.60 34.85
  Q 154.14 24.02 145.72 16.58
  Z"
/>
<path fill="#1d1c1c" d="
  M 112.12 20.78
  L 111.68 23.30
  L 109.92 27.75
  Q 109.79 27.27 108.54 27.56
  Q 108.05 27.67 107.74 27.26
  Q 107.18 26.50 105.99 26.62
  Q 103.96 26.82 102.48 27.07
  C 98.60 27.71 94.50 27.32 90.56 27.56
  C 89.32 27.63 88.21 28.35 86.70 28.08
  Q 86.62 28.07 86.62 28.15
  Q 86.62 28.28 86.62 28.41
  Q 86.62 28.51 86.52 28.51
  Q 84.51 28.69 78.25 30.65
  Q 73.43 32.16 71.68 33.11
  Q 71.24 33.35 70.74 33.36
  Q 70.31 33.37 70.01 33.51
  C 67.49 34.62 64.60 36.15 61.40 38.09
  Q 59.32 39.35 57.27 40.67
  Q 55.58 41.76 53.47 43.65
  C 51.73 45.21 49.83 46.49 48.20 48.22
  Q 47.37 49.11 46.39 49.86
  Q 46.01 50.16 45.90 50.62
  Q 45.81 51.00 45.51 51.22
  Q 45.07 51.54 45.02 51.59
  Q 39.22 57.39 35.87 62.75
  Q 31.96 69.00 29.65 72.12
  Q 29.25 72.65 29.52 72.94
  Q 29.78 73.21 30.38 73.54
  L 26.49 72.93
  Q 25.06 72.48 25.01 71.38
  Q 24.99 71.13 25.25 71.13
  Q 25.39 71.13 25.53 71.13
  Q 25.61 71.13 25.56 71.07
  Q 25.21 70.67 25.59 70.22
  Q 29.33 65.77 32.04 61.15
  Q 34.58 56.82 36.63 54.29
  Q 39.23 51.07 41.78 47.81
  C 43.38 45.76 45.56 44.09 47.41 42.17
  A 1.13 1.00 -73.5 0 1 47.87 41.88
  Q 48.93 41.56 49.19 40.51
  Q 49.33 39.96 49.99 39.85
  A 0.58 0.49 18.8 0 0 50.22 39.76
  Q 64.77 28.90 84.39 24.13
  Q 91.55 22.39 97.14 22.30
  C 102.12 22.22 105.54 22.04 109.73 21.93
  Q 110.28 21.91 110.66 21.52
  Q 111.97 20.15 112.12 20.78
  Z"
/>
<path fill="#ffc809" d="
  M 154.09 41.41
  L 152.17 48.80
  Q 148.37 59.01 141.27 68.27
  C 117.53 99.25 71.17 124.10 31.70 121.48
  L 19.98 118.74
  L 18.56 118.05
  Q 19.36 118.32 19.37 117.76
  Q 19.39 116.75 18.55 116.62
  Q 18.10 116.55 17.89 116.15
  L 16.37 113.20
  Q 16.14 112.76 16.28 112.28
  Q 16.82 110.43 16.62 108.75
  Q 16.06 104.04 16.12 100.34
  Q 16.12 100.25 16.06 100.18
  Q 15.98 100.06 15.88 99.97
  Q 15.64 99.73 15.69 99.40
  Q 16.08 96.97 15.80 94.48
  Q 15.58 94.38 15.84 94.29
  Q 16.17 94.18 16.21 93.84
  Q 17.37 85.12 19.15 76.50
  Q 19.28 75.87 20.22 74.72
  Q 20.56 74.31 20.30 73.84
  Q 20.18 73.62 19.94 73.47
  A 0.23 0.23 0.0 0 1 20.00 73.06
  Q 20.70 72.86 21.02 72.56
  Q 21.23 72.36 21.49 72.49
  Q 23.18 73.37 25.38 72.86
  L 26.49 72.93
  L 30.38 73.54
  C 58.25 74.77 96.87 52.31 109.92 27.75
  L 111.68 23.30
  Q 111.63 23.45 111.62 23.59
  Q 111.62 23.78 111.81 23.74
  L 112.30 23.64
  Q 112.87 23.53 112.87 22.95
  L 112.87 21.20
  Q 112.87 20.50 113.56 20.58
  L 119.88 21.31
  Q 120.31 21.36 120.38 21.79
  Q 120.43 22.07 120.74 22.15
  Q 124.99 23.29 129.09 24.85
  C 134.02 26.73 139.02 29.80 143.87 32.50
  Q 144.25 32.72 144.49 33.09
  Q 145.57 34.75 147.23 35.48
  C 149.08 36.30 149.57 36.65 150.58 38.14
  A 1.87 1.82 -2.4 0 0 151.26 38.75
  Q 153.17 39.75 154.09 41.41
  Z"
/>
<path fill="#060709" d="
  M 109.92 27.75
  C 96.87 52.31 58.25 74.77 30.38 73.54
  Q 29.78 73.21 29.52 72.94
  Q 29.25 72.65 29.65 72.12
  Q 31.96 69.00 35.87 62.75
  Q 39.22 57.39 45.02 51.59
  Q 45.07 51.54 45.51 51.22
  Q 45.81 51.00 45.90 50.62
  Q 46.01 50.16 46.39 49.86
  Q 47.37 49.11 48.20 48.22
  C 49.83 46.49 51.73 45.21 53.47 43.65
  Q 55.58 41.76 57.27 40.67
  Q 59.32 39.35 61.40 38.09
  C 64.60 36.15 67.49 34.62 70.01 33.51
  Q 70.31 33.37 70.74 33.36
  Q 71.24 33.35 71.68 33.11
  Q 73.43 32.16 78.25 30.65
  Q 84.51 28.69 86.52 28.51
  Q 86.62 28.51 86.62 28.41
  Q 86.62 28.28 86.62 28.15
  Q 86.62 28.07 86.70 28.08
  C 88.21 28.35 89.32 27.63 90.56 27.56
  C 94.50 27.32 98.60 27.71 102.48 27.07
  Q 103.96 26.82 105.99 26.62
  Q 107.18 26.50 107.74 27.26
  Q 108.05 27.67 108.54 27.56
  Q 109.79 27.27 109.92 27.75
  Z"
/>
<path fill="#1d1c1c" d="
  M 180.31 81.74
  L 176.41 91.51
  L 172.81 98.10
  Q 172.53 97.38 172.86 96.50
  Q 172.90 96.39 172.81 96.46
  Q 172.70 96.53 172.58 96.59
  Q 172.48 96.64 172.42 96.55
  C 171.82 95.61 171.15 94.93 171.09 93.75
  Q 170.91 90.04 170.17 86.41
  Q 170.07 85.91 170.21 85.42
  Q 170.55 84.29 170.36 83.49
  Q 167.33 70.76 160.15 59.93
  C 159.53 58.98 158.45 58.12 157.86 56.94
  Q 156.97 55.15 156.48 54.54
  Q 154.13 51.62 152.17 48.80
  L 154.09 41.41
  L 154.60 34.85
  Q 155.50 35.98 155.33 37.78
  A 1.17 1.16 27.4 0 0 155.61 38.66
  Q 158.75 42.28 161.92 45.83
  C 163.48 47.58 165.70 50.34 166.80 52.44
  C 167.30 53.41 168.16 54.05 168.65 54.92
  C 169.75 56.86 170.48 58.46 171.89 60.60
  C 173.08 62.40 173.87 64.95 174.85 66.86
  C 176.01 69.13 176.11 71.65 177.54 74.02
  A 1.18 1.18 0.0 0 1 177.64 75.03
  Q 177.12 76.46 178.02 77.62
  Q 178.32 78.00 178.50 78.45
  Q 178.91 79.46 178.96 80.57
  A 0.31 0.30 -23.4 0 0 179.48 80.77
  L 179.74 80.50
  Q 179.90 80.34 179.89 80.57
  Q 179.86 80.93 179.90 81.24
  Q 179.94 81.55 180.31 81.74
  Z"
/>
<path fill="#060709" d="
  M 152.17 48.80
  Q 154.13 51.62 156.48 54.54
  Q 156.97 55.15 157.86 56.94
  C 158.45 58.12 159.53 58.98 160.15 59.93
  Q 167.33 70.76 170.36 83.49
  Q 170.55 84.29 170.21 85.42
  Q 170.07 85.91 170.17 86.41
  Q 170.91 90.04 171.09 93.75
  C 171.15 94.93 171.82 95.61 172.42 96.55
  Q 172.48 96.64 172.58 96.59
  Q 172.70 96.53 172.81 96.46
  Q 172.90 96.39 172.86 96.50
  Q 172.53 97.38 172.81 98.10
  C 151.00 132.96 108.18 158.84 67.55 162.79
  Q 67.46 162.40 67.01 162.37
  Q 66.97 162.37 67.01 162.36
  Q 67.34 162.27 67.48 161.93
  Q 67.55 161.76 67.39 161.67
  Q 67.28 161.60 67.11 161.63
  Q 67.24 161.64 67.37 161.56
  Q 67.55 161.46 67.36 161.37
  Q 61.07 158.36 58.26 156.22
  Q 51.22 150.90 43.71 142.06
  C 42.53 140.68 41.62 138.97 40.36 137.47
  C 39.39 136.30 39.16 134.86 37.95 133.72
  A 1.78 1.72 17.5 0 1 37.43 132.76
  Q 37.16 131.27 36.08 130.31
  Q 35.70 129.98 35.49 129.53
  L 31.70 121.48
  C 71.17 124.10 117.53 99.25 141.27 68.27
  Q 148.37 59.01 152.17 48.80
  Z"
/>
<path fill="#fed251" d="
  M 181.28 52.50
  Q 193.26 73.00 194.03 96.53
  C 194.57 106.05 190.62 117.16 186.19 125.43
  C 166.69 160.53 126.68 184.47 87.23 188.30
  C 74.27 188.84 63.01 187.94 50.92 182.86
  C 36.68 174.26 24.22 162.47 16.22 147.78
  Q 22.98 154.76 31.82 158.54
  L 42.83 161.73
  L 49.59 162.84
  Q 48.89 163.30 48.85 163.74
  Q 48.80 164.31 49.37 164.39
  Q 51.49 164.70 52.92 166.06
  Q 54.83 167.89 55.61 168.31
  Q 59.51 170.38 63.56 172.12
  Q 63.70 172.18 68.06 174.39
  C 74.75 177.77 82.98 179.67 89.49 180.20
  Q 102.42 181.24 115.16 178.99
  Q 117.32 178.61 120.34 177.20
  Q 122.86 176.03 125.54 175.29
  C 127.60 174.72 129.90 173.44 132.33 173.19
  Q 132.84 173.14 133.19 172.78
  Q 134.36 171.61 136.05 171.39
  Q 136.48 171.33 136.65 170.94
  Q 136.80 170.58 137.16 170.62
  Q 137.48 170.65 137.72 170.43
  Q 138.41 169.80 139.21 169.62
  Q 139.49 169.56 139.61 169.29
  Q 140.01 168.38 141.03 168.30
  Q 141.48 168.27 141.85 168.01
  L 143.96 166.47
  Q 144.09 166.38 144.25 166.38
  Q 144.37 166.38 144.50 166.38
  Q 144.63 166.38 144.63 166.28
  Q 144.63 166.16 144.62 166.02
  Q 144.62 165.96 144.67 165.92
  Q 146.61 164.48 148.56 163.04
  Q 148.98 162.72 149.48 162.59
  Q 150.82 162.23 151.57 161.01
  Q 151.65 160.88 151.76 160.43
  Q 151.86 160.04 152.22 159.88
  Q 152.61 159.70 152.81 159.31
  Q 153.49 157.97 154.89 157.35
  A 2.87 2.74 -78.3 0 0 155.73 156.77
  L 157.75 154.75
  Q 158.15 154.35 158.69 154.53
  Q 159.67 154.85 159.96 153.72
  Q 160.15 153.00 160.15 152.98
  Q 160.00 152.57 160.26 152.26
  Q 161.66 150.58 162.46 149.03
  A 1.38 1.35 89.5 0 1 163.01 148.46
  Q 164.64 147.56 165.35 145.49
  Q 165.55 144.91 166.15 144.76
  Q 166.61 144.64 166.72 144.19
  Q 167.72 140.28 170.28 137.85
  Q 170.64 137.51 170.66 137.03
  Q 170.69 136.53 171.01 136.13
  C 172.27 134.54 172.11 132.72 172.66 131.29
  Q 173.55 129.00 174.69 126.82
  C 175.14 125.97 175.05 125.15 175.47 124.33
  Q 176.23 122.84 176.31 122.59
  C 179.39 112.91 179.21 104.13 179.59 92.46
  Q 179.61 92.00 179.42 91.58
  Q 178.95 90.51 179.15 89.37
  Q 179.18 89.19 179.01 89.27
  Q 178.51 89.49 178.15 89.76
  Q 177.79 90.03 177.72 90.48
  Q 177.62 91.09 176.41 91.51
  L 180.31 81.74
  Q 185.28 67.40 181.28 52.50
  Z"
/>
<path fill="#fed251" d="
  M 15.51 53.13
  Q 13.13 60.09 15.32 65.45
  Q 16.61 68.28 19.34 70.17
  Q 21.66 71.86 25.38 72.86
  Q 23.18 73.37 21.49 72.49
  Q 21.23 72.36 21.02 72.56
  Q 20.70 72.86 20.00 73.06
  A 0.23 0.23 0.0 0 0 19.94 73.47
  Q 20.18 73.62 20.30 73.84
  Q 20.56 74.31 20.22 74.72
  Q 19.28 75.87 19.15 76.50
  Q 17.37 85.12 16.21 93.84
  Q 16.17 94.18 15.84 94.29
  Q 15.58 94.38 15.80 94.48
  Q 16.08 96.97 15.69 99.40
  Q 15.64 99.73 15.88 99.97
  Q 15.98 100.06 16.06 100.18
  Q 16.12 100.25 16.12 100.34
  Q 16.06 104.04 16.62 108.75
  Q 16.82 110.43 16.28 112.28
  Q 16.14 112.76 16.37 113.20
  L 17.89 116.15
  Q 18.10 116.55 18.55 116.62
  Q 19.39 116.75 19.37 117.76
  Q 19.36 118.32 18.56 118.05
  Q 13.58 116.02 9.39 111.98
  Q 4.75 107.23 3.26 100.27
  Q 2.76 95.91 3.00 93.25
  C 4.35 78.36 7.92 65.90 15.51 53.13
  Z"
/>
<path fill="#ffc809" d="
  M 49.59 162.84
  Q 58.53 163.77 67.55 162.79
  C 108.18 158.84 151.00 132.96 172.81 98.10
  L 176.41 91.51
  Q 177.62 91.09 177.72 90.48
  Q 177.79 90.03 178.15 89.76
  Q 178.51 89.49 179.01 89.27
  Q 179.18 89.19 179.15 89.37
  Q 178.95 90.51 179.42 91.58
  Q 179.61 92.00 179.59 92.46
  C 179.21 104.13 179.39 112.91 176.31 122.59
  Q 176.23 122.84 175.47 124.33
  C 175.05 125.15 175.14 125.97 174.69 126.82
  Q 173.55 129.00 172.66 131.29
  C 172.11 132.72 172.27 134.54 171.01 136.13
  Q 170.69 136.53 170.66 137.03
  Q 170.64 137.51 170.28 137.85
  Q 167.72 140.28 166.72 144.19
  Q 166.61 144.64 166.15 144.76
  Q 165.55 144.91 165.35 145.49
  Q 164.64 147.56 163.01 148.46
  A 1.38 1.35 89.5 0 0 162.46 149.03
  Q 161.66 150.58 160.26 152.26
  Q 160.00 152.57 160.15 152.98
  Q 160.15 153.00 159.96 153.72
  Q 159.67 154.85 158.69 154.53
  Q 158.15 154.35 157.75 154.75
  L 155.73 156.77
  A 2.87 2.74 -78.3 0 1 154.89 157.35
  Q 153.49 157.97 152.81 159.31
  Q 152.61 159.70 152.22 159.88
  Q 151.86 160.04 151.76 160.43
  Q 151.65 160.88 151.57 161.01
  Q 150.82 162.23 149.48 162.59
  Q 148.98 162.72 148.56 163.04
  Q 146.61 164.48 144.67 165.92
  Q 144.62 165.96 144.62 166.02
  Q 144.63 166.16 144.63 166.28
  Q 144.63 166.38 144.50 166.38
  Q 144.37 166.38 144.25 166.38
  Q 144.09 166.38 143.96 166.47
  L 141.85 168.01
  Q 141.48 168.27 141.03 168.30
  Q 140.01 168.38 139.61 169.29
  Q 139.49 169.56 139.21 169.62
  Q 138.41 169.80 137.72 170.43
  Q 137.48 170.65 137.16 170.62
  Q 136.80 170.58 136.65 170.94
  Q 136.48 171.33 136.05 171.39
  Q 134.36 171.61 133.19 172.78
  Q 132.84 173.14 132.33 173.19
  C 129.90 173.44 127.60 174.72 125.54 175.29
  Q 122.86 176.03 120.34 177.20
  Q 117.32 178.61 115.16 178.99
  Q 102.42 181.24 89.49 180.20
  C 82.98 179.67 74.75 177.77 68.06 174.39
  Q 63.70 172.18 63.56 172.12
  Q 59.51 170.38 55.61 168.31
  Q 54.83 167.89 52.92 166.06
  Q 51.49 164.70 49.37 164.39
  Q 48.80 164.31 48.85 163.74
  Q 48.89 163.30 49.59 162.84
  Z"
/>
<path fill="#3f3e3d" d="
  M 194.03 96.53
  C 194.86 104.72 194.04 110.00 192.39 118.63
  C 191.28 124.42 189.44 129.51 187.48 135.02
  Q 186.21 138.59 184.84 141.34
  C 159.75 191.75 100.29 210.07 50.92 182.86
  C 63.01 187.94 74.27 188.84 87.23 188.30
  L 90.64 190.27
  Q 91.07 190.52 91.56 190.57
  C 94.74 190.89 97.63 191.42 100.85 191.16
  Q 106.79 190.70 112.74 190.38
  Q 113.61 190.33 114.71 190.00
  C 116.35 189.50 117.81 189.41 119.50 188.74
  Q 120.98 188.16 122.55 187.98
  C 124.97 187.71 126.74 186.64 129.10 186.36
  C 130.77 186.16 131.55 185.62 132.59 184.47
  Q 132.78 184.26 133.02 184.39
  Q 133.15 184.45 133.28 184.53
  Q 133.48 184.66 133.70 184.57
  C 135.77 183.72 138.71 182.88 140.34 181.34
  Q 141.12 180.62 142.05 180.14
  Q 144.46 178.92 144.73 178.73
  C 147.56 176.85 150.72 175.31 153.26 173.33
  C 155.95 171.25 159.10 169.01 161.02 166.53
  A 1.81 1.76 -81.4 0 1 161.77 165.96
  Q 164.04 165.06 164.87 163.50
  Q 165.48 162.36 166.21 161.85
  Q 167.09 161.23 167.14 161.18
  Q 169.04 159.39 170.58 157.28
  A 2.32 2.14 -84.2 0 1 171.28 156.66
  Q 173.34 155.52 173.93 153.20
  Q 174.07 152.65 174.47 152.24
  C 176.76 149.94 177.55 147.80 179.29 145.55
  C 181.32 142.93 181.47 139.26 183.24 136.39
  Q 183.47 136.01 183.37 135.58
  Q 183.09 134.38 184.08 133.81
  Q 184.53 133.56 184.37 133.07
  C 183.12 129.22 187.06 128.76 186.19 125.43
  C 190.62 117.16 194.57 106.05 194.03 96.53
  Z"
/>
<path fill="#3f3e3d" d="
  M 3.26 100.27
  Q 4.75 107.23 9.39 111.98
  Q 8.49 113.76 10.45 115.78
  A 1.62 1.60 -75.2 0 1 10.84 116.46
  L 14.90 131.27
  Q 15.01 131.67 15.33 131.92
  Q 16.15 132.57 15.78 133.18
  Q 15.53 133.61 15.77 134.05
  Q 19.66 141.14 23.50 148.28
  Q 23.87 148.97 25.50 150.36
  A 1.46 1.42 15.1 0 1 25.97 151.15
  C 26.23 152.40 27.39 152.74 27.96 153.43
  Q 28.69 154.31 29.40 155.22
  Q 29.79 155.72 30.30 156.10
  Q 31.99 157.32 31.82 158.54
  Q 22.98 154.76 16.22 147.78
  C 9.45 136.96 6.99 128.37 3.99 115.25
  Q 2.61 109.23 3.26 100.27
  Z"
/>
<path fill="#343231" d="
  M 9.39 111.98
  Q 13.58 116.02 18.56 118.05
  L 19.98 118.74
  Q 19.83 118.80 19.74 118.90
  Q 19.68 118.98 19.72 119.08
  C 20.54 120.91 20.75 123.13 21.62 124.81
  C 22.95 127.40 23.66 130.06 24.72 132.75
  C 24.92 133.24 25.32 133.52 25.60 134.08
  Q 28.01 138.94 31.12 143.44
  C 31.57 144.08 32.15 144.27 32.46 145.01
  Q 33.00 146.27 33.05 146.35
  Q 37.69 153.38 42.81 157.79
  Q 44.33 159.10 44.71 159.61
  A 0.86 0.85 76.3 0 0 45.23 159.93
  Q 46.12 160.10 46.25 160.91
  Q 46.31 161.31 45.92 161.36
  L 42.83 161.73
  L 31.82 158.54
  Q 31.99 157.32 30.30 156.10
  Q 29.79 155.72 29.40 155.22
  Q 28.69 154.31 27.96 153.43
  C 27.39 152.74 26.23 152.40 25.97 151.15
  A 1.46 1.42 15.1 0 0 25.50 150.36
  Q 23.87 148.97 23.50 148.28
  Q 19.66 141.14 15.77 134.05
  Q 15.53 133.61 15.78 133.18
  Q 16.15 132.57 15.33 131.92
  Q 15.01 131.67 14.90 131.27
  L 10.84 116.46
  A 1.62 1.60 -75.2 0 0 10.45 115.78
  Q 8.49 113.76 9.39 111.98
  Z"
/>
<path fill="#1d1c1c" d="
  M 19.98 118.74
  L 31.70 121.48
  L 35.49 129.53
  Q 35.70 129.98 36.08 130.31
  Q 37.16 131.27 37.43 132.76
  A 1.78 1.72 17.5 0 0 37.95 133.72
  C 39.16 134.86 39.39 136.30 40.36 137.47
  C 41.62 138.97 42.53 140.68 43.71 142.06
  Q 51.22 150.90 58.26 156.22
  Q 61.07 158.36 67.36 161.37
  Q 67.55 161.46 67.37 161.56
  Q 67.24 161.64 67.11 161.63
  Q 67.28 161.60 67.39 161.67
  Q 67.55 161.76 67.48 161.93
  Q 67.34 162.27 67.01 162.36
  Q 66.97 162.37 67.01 162.37
  Q 67.46 162.40 67.55 162.79
  Q 58.53 163.77 49.59 162.84
  L 42.83 161.73
  L 45.92 161.36
  Q 46.31 161.31 46.25 160.91
  Q 46.12 160.10 45.23 159.93
  A 0.86 0.85 76.3 0 1 44.71 159.61
  Q 44.33 159.10 42.81 157.79
  Q 37.69 153.38 33.05 146.35
  Q 33.00 146.27 32.46 145.01
  C 32.15 144.27 31.57 144.08 31.12 143.44
  Q 28.01 138.94 25.60 134.08
  C 25.32 133.52 24.92 133.24 24.72 132.75
  C 23.66 130.06 22.95 127.40 21.62 124.81
  C 20.75 123.13 20.54 120.91 19.72 119.08
  Q 19.68 118.98 19.74 118.90
  Q 19.83 118.80 19.98 118.74
  Z"
/>
<path fill="#343231" d="
  M 186.19 125.43
  C 187.06 128.76 183.12 129.22 184.37 133.07
  Q 184.53 133.56 184.08 133.81
  Q 183.09 134.38 183.37 135.58
  Q 183.47 136.01 183.24 136.39
  C 181.47 139.26 181.32 142.93 179.29 145.55
  C 177.55 147.80 176.76 149.94 174.47 152.24
  Q 174.07 152.65 173.93 153.20
  Q 173.34 155.52 171.28 156.66
  A 2.32 2.14 -84.2 0 0 170.58 157.28
  Q 169.04 159.39 167.14 161.18
  Q 167.09 161.23 166.21 161.85
  Q 165.48 162.36 164.87 163.50
  Q 164.04 165.06 161.77 165.96
  A 1.81 1.76 -81.4 0 0 161.02 166.53
  C 159.10 169.01 155.95 171.25 153.26 173.33
  C 150.72 175.31 147.56 176.85 144.73 178.73
  Q 144.46 178.92 142.05 180.14
  Q 141.12 180.62 140.34 181.34
  C 138.71 182.88 135.77 183.72 133.70 184.57
  Q 133.48 184.66 133.28 184.53
  Q 133.15 184.45 133.02 184.39
  Q 132.78 184.26 132.59 184.47
  C 131.55 185.62 130.77 186.16 129.10 186.36
  C 126.74 186.64 124.97 187.71 122.55 187.98
  Q 120.98 188.16 119.50 188.74
  C 117.81 189.41 116.35 189.50 114.71 190.00
  Q 113.61 190.33 112.74 190.38
  Q 106.79 190.70 100.85 191.16
  C 97.63 191.42 94.74 190.89 91.56 190.57
  Q 91.07 190.52 90.64 190.27
  L 87.23 188.30
  C 126.68 184.47 166.69 160.53 186.19 125.43
  Z"
/>
</svg>
