<?xml version="1.0" encoding="UTF-8" standalone="no"?>
<!DOCTYPE svg PUBLIC "-//W3C//DTD SVG 1.1//EN" "http://www.w3.org/Graphics/SVG/1.1/DTD/svg11.dtd">
<svg xmlns="http://www.w3.org/2000/svg" version="1.1" viewBox="0.00 0.00 100.00 100.00">
<g stroke-width="2.00" fill="none" stroke-linecap="butt">
<path stroke="#fad28d" vector-effect="non-scaling-stroke" d="
  M 23.26 25.91
  Q 17.45 32.29 15.21 41.25
  Q 15.09 41.74 15.30 41.98"
/>
<path stroke="#7b7b7b" vector-effect="non-scaling-stroke" d="
  M 15.30 41.98
  Q 14.98 41.88 14.90 42.27
  Q 13.42 49.16 14.50 56.02"
/>
<path stroke="#fad28d" vector-effect="non-scaling-stroke" d="
  M 14.50 56.02
  Q 16.17 65.02 21.51 72.04"
/>
<path stroke="#7b7b7b" vector-effect="non-scaling-stroke" d="
  M 21.51 72.04
  C 36.75 90.26 63.47 91.05 78.40 72.04"
/>
<path stroke="#fad28d" vector-effect="non-scaling-stroke" d="
  M 78.40 72.04
  Q 83.83 65.23 85.44 56.04"
/>
<path stroke="#7b7b7b" vector-effect="non-scaling-stroke" d="
  M 85.44 56.04
  Q 86.69 48.91 85.05 41.96"
/>
<path stroke="#fad28d" vector-effect="non-scaling-stroke" d="
  M 85.05 41.96
  Q 82.72 32.34 76.67 25.94"
/>
<path stroke="#7b7b7b" vector-effect="non-scaling-stroke" d="
  M 76.67 25.94
  C 61.89 9.66 38.30 10.38 23.26 25.91"
/>
<path stroke="#805712" vector-effect="non-scaling-stroke" d="
  M 76.67 25.94
  L 23.26 25.91"
/>
<path stroke="#805712" vector-effect="non-scaling-stroke" d="
  M 85.05 41.96
  L 15.30 41.98"
/>
<path stroke="#805712" vector-effect="non-scaling-stroke" d="
  M 85.44 56.04
  L 14.50 56.02"
/>
<path stroke="#805712" vector-effect="non-scaling-stroke" d="
  M 78.40 72.04
  L 21.51 72.04"
/>
</g>
<path fill="#f5f5f5" d="
  M 47.64 0.00
  L 52.48 0.00
  C 78.73 2.30 98.26 21.28 100.00 47.65
  L 100.00 52.49
  C 97.74 78.75 78.66 98.25 52.35 100.00
  L 47.52 100.00
  C 21.39 97.92 1.70 78.55 0.00 52.35
  L 0.00 47.53
  C 1.78 21.33 21.49 2.02 47.64 0.00
  Z
  M 23.26 25.91
  Q 17.45 32.29 15.21 41.25
  Q 15.09 41.74 15.30 41.98
  Q 14.98 41.88 14.90 42.27
  Q 13.42 49.16 14.50 56.02
  Q 16.17 65.02 21.51 72.04
  C 36.75 90.26 63.47 91.05 78.40 72.04
  Q 83.83 65.23 85.44 56.04
  Q 86.69 48.91 85.05 41.96
  Q 82.72 32.34 76.67 25.94
  C 61.89 9.66 38.30 10.38 23.26 25.91
  Z"
/>
<path fill="#000000" d="
  M 76.67 25.94
  L 23.26 25.91
  C 38.30 10.38 61.89 9.66 76.67 25.94
  Z"
/>
<path fill="#ffae24" d="
  M 76.67 25.94
  Q 82.72 32.34 85.05 41.96
  L 15.30 41.98
  Q 15.09 41.74 15.21 41.25
  Q 17.45 32.29 23.26 25.91
  L 76.67 25.94
  Z"
/>
<path fill="#000000" d="
  M 85.05 41.96
  Q 86.69 48.91 85.44 56.04
  L 14.50 56.02
  Q 13.42 49.16 14.90 42.27
  Q 14.98 41.88 15.30 41.98
  L 85.05 41.96
  Z"
/>
<path fill="#ffae24" d="
  M 14.50 56.02
  L 85.44 56.04
  Q 83.83 65.23 78.40 72.04
  L 21.51 72.04
  Q 16.17 65.02 14.50 56.02
  Z"
/>
<path fill="#000000" d="
  M 21.51 72.04
  L 78.40 72.04
  C 63.47 91.05 36.75 90.26 21.51 72.04
  Z"
/>
</svg>
