<?xml version="1.0" encoding="UTF-8" standalone="no"?>
<!DOCTYPE svg PUBLIC "-//W3C//DTD SVG 1.1//EN" "http://www.w3.org/Graphics/SVG/1.1/DTD/svg11.dtd">
<svg xmlns="http://www.w3.org/2000/svg" version="1.1" viewBox="0.00 0.00 1590.00 313.00">
<g stroke-width="2.00" fill="none" stroke-linecap="butt">
<path stroke="#a89141" vector-effect="non-scaling-stroke" d="
  M 154.44 5.10
  L 153.93 5.22
  Q 152.83 5.46 153.94 5.64
  Q 170.90 8.29 176.50 20.76"
/>
<path stroke="#444444" vector-effect="non-scaling-stroke" d="
  M 176.50 20.76
  Q 174.33 21.52 172.09 21.18
  Q 167.91 20.55 167.84 20.54
  C 158.51 20.19 148.90 19.90 139.63 21.09
  Q 139.30 21.13 138.40 21.05
  Q 137.66 20.98 137.08 21.34
  Q 136.66 21.59 136.17 21.61
  C 134.88 21.65 133.94 21.50 132.63 21.90
  Q 131.37 22.28 129.26 22.64
  Q 122.90 23.70 114.06 26.54
  Q 94.27 32.89 77.13 44.56
  Q 76.80 44.79 75.95 45.53
  C 75.02 46.33 73.53 46.95 72.73 47.58
  C 62.11 55.95 51.95 66.01 44.30 77.18
  Q 42.22 80.22 40.12 83.25
  Q 35.30 90.17 27.20 107.40"
/>
<path stroke="#a89141" vector-effect="non-scaling-stroke" d="
  M 27.20 107.40
  Q 22.22 102.37 22.41 94.74
  Q 22.60 87.21 24.35 81.14"
/>
<path stroke="#a89141" vector-effect="non-scaling-stroke" d="
  M 230.04 24.64
  Q 230.97 26.33 234.06 29.45
  C 244.62 40.09 245.58 57.14 240.39 71.29"
/>
<path stroke="#947e2e" vector-effect="non-scaling-stroke" d="
  M 240.39 71.29
  C 238.90 76.99 236.37 81.46 234.00 86.49"
/>
<path stroke="#8c7626" vector-effect="non-scaling-stroke" d="
  M 234.00 86.49
  L 224.43 101.23"
/>
<path stroke="#a89141" vector-effect="non-scaling-stroke" d="
  M 224.43 101.23
  Q 222.48 102.92 221.76 105.18"
/>
<path stroke="#806a1a" vector-effect="non-scaling-stroke" d="
  M 221.76 105.18
  Q 211.55 117.21 205.85 122.61
  C 168.48 158.04 117.56 185.20 65.57 189.53"
/>
<path stroke="#947e2e" vector-effect="non-scaling-stroke" d="
  M 65.57 189.53
  Q 49.27 190.59 34.02 186.59"
/>
<path stroke="#a89141" vector-effect="non-scaling-stroke" d="
  M 34.02 186.59
  C 23.12 182.98 14.46 177.94 8.55 167.76
  Q 7.23 165.49 5.09 158.64"
/>
<path stroke="#9c8636" vector-effect="non-scaling-stroke" d="
  M 27.20 107.40
  Q 38.93 115.75 54.62 114.01"
/>
<path stroke="#8c7626" vector-effect="non-scaling-stroke" d="
  M 54.62 114.01
  Q 65.59 113.32 73.27 111.27
  C 108.36 101.90 147.37 79.37 168.41 48.39"
/>
<path stroke="#9c8636" vector-effect="non-scaling-stroke" d="
  M 168.41 48.39
  Q 173.06 41.49 175.35 34.57
  Q 177.25 28.86 176.50 20.76"
/>
<path stroke="#282828" vector-effect="non-scaling-stroke" d="
  M 168.41 48.39
  Q 168.24 47.49 168.00 47.46
  Q 167.24 47.36 166.57 46.89
  A 1.02 1.01 55.3 0 0 165.72 46.73
  C 163.45 47.32 160.68 46.97 159.08 47.02
  C 154.36 47.18 149.47 46.98 145.00 47.55
  Q 133.80 48.97 124.01 51.92
  C 96.50 60.19 72.24 79.26 58.96 105.30
  Q 58.69 105.85 56.53 109.51
  Q 55.26 111.67 54.62 114.01"
/>
<path stroke="#3d3c3c" vector-effect="non-scaling-stroke" d="
  M 34.02 186.59
  Q 33.33 186.74 33.27 187.16
  A 0.13 0.13 0.0 0 0 33.38 187.31
  Q 33.51 187.33 33.63 187.36
  Q 33.86 187.42 33.37 187.70
  Q 33.26 187.76 33.18 187.89
  Q 33.12 188.00 33.17 188.12
  C 33.76 189.61 33.50 191.22 33.98 192.57
  C 36.58 199.91 39.26 207.92 42.90 214.25
  Q 44.56 217.14 46.10 220.09
  C 47.14 222.09 48.61 223.84 49.78 225.87
  C 50.73 227.51 52.50 228.78 53.20 230.87
  Q 53.34 231.28 53.70 231.53
  C 55.19 232.56 55.80 234.40 56.86 235.47
  Q 59.86 238.50 62.32 242.00
  Q 62.92 242.86 63.59 243.70
  Q 64.13 244.39 65.14 245.08
  Q 67.87 246.96 69.63 249.83
  Q 69.89 250.27 70.34 250.52
  Q 73.91 252.55 75.87 255.88"
/>
<path stroke="#0c0c0c" vector-effect="non-scaling-stroke" d="
  M 230.61 201.58
  Q 228.96 197.55 231.80 194.31
  Q 232.11 193.95 232.11 193.46
  L 232.11 192.76
  Q 232.11 192.30 232.47 192.02
  Q 232.95 191.65 232.88 191.08
  Q 232.83 190.58 233.14 190.19
  Q 234.09 188.97 234.66 187.55
  C 234.97 186.77 234.78 186.12 235.20 185.24
  Q 235.81 183.95 235.82 183.90
  Q 238.64 175.66 239.73 167.03
  Q 240.63 159.87 239.85 149.76
  Q 239.70 147.85 239.46 147.12
  Q 239.32 146.71 239.39 146.28
  Q 239.61 144.73 238.88 143.32
  Q 238.63 142.86 238.65 142.33
  Q 238.71 140.76 238.11 138.25
  Q 235.12 125.69 230.00 115.80
  C 229.61 115.05 228.88 114.70 228.82 113.72
  Q 228.79 113.21 228.38 112.89
  C 226.57 111.46 226.11 108.95 224.46 107.00
  Q 224.15 106.63 224.11 106.16
  Q 223.95 104.40 222.24 104.71"
/>
<path stroke="#343434" vector-effect="non-scaling-stroke" d="
  M 222.24 104.71
  C 222.55 103.27 224.19 103.18 224.43 101.23"
/>
<path stroke="#a89141" vector-effect="non-scaling-stroke" d="
  M 284.44 78.18
  Q 285.40 81.39 286.39 84.49
  C 293.15 105.56 285.70 130.75 275.08 149.27"
/>
<path stroke="#3d3c3c" vector-effect="non-scaling-stroke" d="
  M 275.08 149.27
  Q 275.02 148.01 275.70 146.87
  A 0.66 0.62 -32.8 0 0 275.79 146.51
  L 275.55 142.41
  Q 275.52 142.01 275.43 141.63
  Q 275.28 141.07 275.36 140.48
  Q 275.43 139.99 275.29 139.52
  Q 274.52 137.05 274.24 133.25
  C 274.08 131.12 272.93 128.51 272.44 126.56
  Q 267.01 105.04 254.11 86.99
  C 252.18 84.28 250.66 81.62 248.19 79.00
  Q 246.83 77.57 245.15 75.04
  Q 243.73 72.89 241.80 71.11
  A 0.40 0.40 0.0 0 0 241.13 71.36
  Q 241.10 71.70 240.85 71.96
  Q 240.40 72.44 240.39 71.78
  L 240.39 71.29"
/>
<path stroke="#151515" vector-effect="non-scaling-stroke" d="
  M 137.55 250.37
  L 134.41 249.91
  A 0.11 0.10 18.8 0 1 134.33 249.76
  L 134.51 249.42
  A 0.29 0.28 22.2 0 0 134.33 249.01
  Q 130.95 248.08 127.54 247.26
  Q 124.07 246.42 121.15 245.17
  Q 116.07 243.00 111.03 240.75
  C 110.23 240.39 109.93 239.76 109.11 239.39
  Q 103.07 236.67 97.98 232.41
  C 95.54 230.37 92.89 228.36 90.71 226.05
  Q 89.86 225.14 88.84 224.42
  C 87.15 223.20 86.28 221.20 84.69 219.60
  Q 83.17 218.07 80.72 215.03
  Q 74.55 207.39 71.17 201.00
  C 70.44 199.63 68.86 197.99 68.58 195.75
  Q 68.46 194.88 67.00 193.25
  Q 66.65 192.86 66.63 192.33
  Q 66.59 190.92 65.36 190.64
  A 0.43 0.42 29.7 0 1 65.16 189.92
  L 65.57 189.53"
/>
<path stroke="#947e2e" vector-effect="non-scaling-stroke" d="
  M 275.08 149.27
  Q 268.88 160.54 260.83 170.65"
/>
<path stroke="#212121" vector-effect="non-scaling-stroke" d="
  M 260.83 170.65
  Q 260.79 170.09 261.07 169.51
  Q 261.26 169.11 261.22 168.66
  C 261.10 166.98 260.57 164.87 261.46 163.41
  Q 261.72 162.99 261.77 162.50
  C 262.18 158.40 262.53 154.98 262.02 150.60
  Q 261.80 148.74 261.62 145.75
  Q 261.09 137.07 257.59 125.92
  C 257.14 124.46 256.04 122.33 255.74 120.24
  C 255.61 119.33 255.09 118.78 254.66 118.04
  Q 254.26 117.36 253.99 116.33
  Q 253.09 112.83 251.19 109.76
  Q 250.58 108.77 250.27 107.53
  C 249.76 105.46 248.27 104.35 247.45 102.59
  Q 246.64 100.87 245.91 99.86
  C 244.50 97.91 243.70 95.69 242.34 93.85
  Q 239.49 89.99 237.01 85.84
  Q 236.78 85.47 236.75 83.94
  Q 236.74 83.59 236.45 83.78
  Q 236.27 83.90 236.07 83.88
  Q 235.58 83.83 235.39 84.29
  Q 234.88 85.52 234.00 86.49"
/>
<path stroke="#282828" vector-effect="non-scaling-stroke" d="
  M 222.24 104.71
  L 221.76 105.18"
/>
<path stroke="#a89141" vector-effect="non-scaling-stroke" d="
  M 306.64 159.19
  Q 303.64 173.71 299.98 183.25
  Q 292.82 201.90 279.21 219.16
  Q 269.75 231.16 260.12 240.10
  C 223.76 273.83 172.82 297.67 122.51 296.77
  Q 102.02 296.41 81.54 289.11"
/>
<path stroke="#a89141" vector-effect="non-scaling-stroke" d="
  M 22.20 228.20
  Q 30.47 238.75 40.24 244.48
  Q 55.82 253.61 75.87 255.88"
/>
<path stroke="#947e2e" vector-effect="non-scaling-stroke" d="
  M 75.87 255.88
  Q 106.76 258.97 137.55 250.37"
/>
<path stroke="#806a1a" vector-effect="non-scaling-stroke" d="
  M 137.55 250.37
  Q 189.04 236.04 230.61 201.58"
/>
<path stroke="#8c7626" vector-effect="non-scaling-stroke" d="
  M 230.61 201.58
  Q 247.26 187.67 260.83 170.65"
/>
</g>
<path fill="#504f4f" d="
  M 154.44 5.10
  L 153.93 5.22
  Q 152.83 5.46 153.94 5.64
  Q 170.90 8.29 176.50 20.76
  Q 174.33 21.52 172.09 21.18
  Q 167.91 20.55 167.84 20.54
  C 158.51 20.19 148.90 19.90 139.63 21.09
  Q 139.30 21.13 138.40 21.05
  Q 137.66 20.98 137.08 21.34
  Q 136.66 21.59 136.17 21.61
  C 134.88 21.65 133.94 21.50 132.63 21.90
  Q 131.37 22.28 129.26 22.64
  Q 122.90 23.70 114.06 26.54
  Q 94.27 32.89 77.13 44.56
  Q 76.80 44.79 75.95 45.53
  C 75.02 46.33 73.53 46.95 72.73 47.58
  C 62.11 55.95 51.95 66.01 44.30 77.18
  Q 42.22 80.22 40.12 83.25
  Q 35.30 90.17 27.20 107.40
  Q 22.22 102.37 22.41 94.74
  Q 22.60 87.21 24.35 81.14
  Q 26.37 76.61 29.32 72.31
  C 57.97 30.66 103.39 4.70 154.44 5.10
  Z"
/>
<path fill="#ffd333" d="
  M 154.44 5.10
  C 180.92 4.78 207.16 11.26 230.04 24.64
  Q 230.97 26.33 234.06 29.45
  C 244.62 40.09 245.58 57.14 240.39 71.29
  C 238.90 76.99 236.37 81.46 234.00 86.49
  L 224.43 101.23
  Q 222.48 102.92 221.76 105.18
  Q 211.55 117.21 205.85 122.61
  C 168.48 158.04 117.56 185.20 65.57 189.53
  Q 49.27 190.59 34.02 186.59
  C 23.12 182.98 14.46 177.94 8.55 167.76
  Q 7.23 165.49 5.09 158.64
  C 5.01 149.68 4.63 140.45 6.10 131.86
  Q 10.66 105.05 24.35 81.14
  Q 22.60 87.21 22.41 94.74
  Q 22.22 102.37 27.20 107.40
  Q 38.93 115.75 54.62 114.01
  Q 65.59 113.32 73.27 111.27
  C 108.36 101.90 147.37 79.37 168.41 48.39
  Q 173.06 41.49 175.35 34.57
  Q 177.25 28.86 176.50 20.76
  Q 170.90 8.29 153.94 5.64
  Q 152.83 5.46 153.93 5.22
  L 154.44 5.10
  Z"
/>
<path fill="#000000" d="
  M 434.53 130.39
  Q 434.80 130.68 434.98 130.33
  C 449.32 103.50 478.97 90.19 508.59 91.80
  C 552.33 94.19 586.97 127.88 588.74 171.50
  C 591.23 232.89 555.68 281.77 490.00 279.59
  C 424.46 277.42 399.36 222.23 398.49 165.00
  C 397.99 131.83 400.43 95.47 415.19 65.41
  C 429.74 35.79 456.45 21.01 488.23 16.81
  Q 528.67 11.48 569.01 6.09
  A 0.48 0.47 -5.8 0 1 569.55 6.52
  L 572.68 46.99
  A 0.60 0.60 0.0 0 1 572.16 47.63
  Q 532.91 52.88 493.88 58.14
  C 473.71 60.85 454.29 67.26 443.84 85.63
  C 436.95 97.74 434.54 115.40 434.28 129.75
  Q 434.27 130.11 434.53 130.39
  Z
  M 510.55 132.65
  C 487.12 128.54 456.01 132.64 440.78 153.50
  Q 438.73 156.30 438.73 157.49
  Q 438.61 173.16 438.81 180.99
  C 439.57 210.74 456.93 235.37 487.96 238.27
  C 518.87 241.17 542.77 225.94 547.68 194.46
  C 552.27 165.06 542.66 138.29 510.55 132.65
  Z"
/>
<path fill="#383838" d="
  M 176.50 20.76
  Q 177.25 28.86 175.35 34.57
  Q 173.06 41.49 168.41 48.39
  Q 168.24 47.49 168.00 47.46
  Q 167.24 47.36 166.57 46.89
  A 1.02 1.01 55.3 0 0 165.72 46.73
  C 163.45 47.32 160.68 46.97 159.08 47.02
  C 154.36 47.18 149.47 46.98 145.00 47.55
  Q 133.80 48.97 124.01 51.92
  C 96.50 60.19 72.24 79.26 58.96 105.30
  Q 58.69 105.85 56.53 109.51
  Q 55.26 111.67 54.62 114.01
  Q 38.93 115.75 27.20 107.40
  Q 35.30 90.17 40.12 83.25
  Q 42.22 80.22 44.30 77.18
  C 51.95 66.01 62.11 55.95 72.73 47.58
  C 73.53 46.95 75.02 46.33 75.95 45.53
  Q 76.80 44.79 77.13 44.56
  Q 94.27 32.89 114.06 26.54
  Q 122.90 23.70 129.26 22.64
  Q 131.37 22.28 132.63 21.90
  C 133.94 21.50 134.88 21.65 136.17 21.61
  Q 136.66 21.59 137.08 21.34
  Q 137.66 20.98 138.40 21.05
  Q 139.30 21.13 139.63 21.09
  C 148.90 19.90 158.51 20.19 167.84 20.54
  Q 167.91 20.55 172.09 21.18
  Q 174.33 21.52 176.50 20.76
  Z"
/>
<path fill="#000000" d="
  M 1275.27 23.63
  C 1278.63 40.86 1296.42 42.65 1310.75 40.77
  Q 1323.21 39.14 1328.15 27.69
  Q 1329.08 25.54 1329.93 23.36
  A 0.87 0.86 10.2 0 1 1330.74 22.80
  L 1360.49 22.80
  Q 1361.03 22.80 1361.00 23.35
  C 1359.34 50.93 1338.58 72.11 1311.01 74.28
  C 1308.11 74.51 1303.79 74.18 1300.16 74.31
  C 1270.01 75.43 1246.15 52.94 1243.99 23.38
  A 0.52 0.52 0.0 0 1 1244.51 22.82
  L 1274.25 22.79
  A 1.04 1.03 -5.4 0 1 1275.27 23.63
  Z"
/>
<path fill="#504f4f" d="
  M 230.04 24.64
  C 251.66 37.05 272.24 56.04 284.44 78.18
  Q 285.40 81.39 286.39 84.49
  C 293.15 105.56 285.70 130.75 275.08 149.27
  Q 275.02 148.01 275.70 146.87
  A 0.66 0.62 -32.8 0 0 275.79 146.51
  L 275.55 142.41
  Q 275.52 142.01 275.43 141.63
  Q 275.28 141.07 275.36 140.48
  Q 275.43 139.99 275.29 139.52
  Q 274.52 137.05 274.24 133.25
  C 274.08 131.12 272.93 128.51 272.44 126.56
  Q 267.01 105.04 254.11 86.99
  C 252.18 84.28 250.66 81.62 248.19 79.00
  Q 246.83 77.57 245.15 75.04
  Q 243.73 72.89 241.80 71.11
  A 0.40 0.40 0.0 0 0 241.13 71.36
  Q 241.10 71.70 240.85 71.96
  Q 240.40 72.44 240.39 71.78
  L 240.39 71.29
  C 245.58 57.14 244.62 40.09 234.06 29.45
  Q 230.97 26.33 230.04 24.64
  Z"
/>
<path fill="#181818" d="
  M 168.41 48.39
  C 147.37 79.37 108.36 101.90 73.27 111.27
  Q 65.59 113.32 54.62 114.01
  Q 55.26 111.67 56.53 109.51
  Q 58.69 105.85 58.96 105.30
  C 72.24 79.26 96.50 60.19 124.01 51.92
  Q 133.80 48.97 145.00 47.55
  C 149.47 46.98 154.36 47.18 159.08 47.02
  C 160.68 46.97 163.45 47.32 165.72 46.73
  A 1.02 1.01 55.3 0 1 166.57 46.89
  Q 167.24 47.36 168.00 47.46
  Q 168.24 47.49 168.41 48.39
  Z"
/>
<path fill="#292929" d="
  M 275.08 149.27
  Q 268.88 160.54 260.83 170.65
  Q 260.79 170.09 261.07 169.51
  Q 261.26 169.11 261.22 168.66
  C 261.10 166.98 260.57 164.87 261.46 163.41
  Q 261.72 162.99 261.77 162.50
  C 262.18 158.40 262.53 154.98 262.02 150.60
  Q 261.80 148.74 261.62 145.75
  Q 261.09 137.07 257.59 125.92
  C 257.14 124.46 256.04 122.33 255.74 120.24
  C 255.61 119.33 255.09 118.78 254.66 118.04
  Q 254.26 117.36 253.99 116.33
  Q 253.09 112.83 251.19 109.76
  Q 250.58 108.77 250.27 107.53
  C 249.76 105.46 248.27 104.35 247.45 102.59
  Q 246.64 100.87 245.91 99.86
  C 244.50 97.91 243.70 95.69 242.34 93.85
  Q 239.49 89.99 237.01 85.84
  Q 236.78 85.47 236.75 83.94
  Q 236.74 83.59 236.45 83.78
  Q 236.27 83.90 236.07 83.88
  Q 235.58 83.83 235.39 84.29
  Q 234.88 85.52 234.00 86.49
  C 236.37 81.46 238.90 76.99 240.39 71.29
  L 240.39 71.78
  Q 240.40 72.44 240.85 71.96
  Q 241.10 71.70 241.13 71.36
  A 0.40 0.40 0.0 0 1 241.80 71.11
  Q 243.73 72.89 245.15 75.04
  Q 246.83 77.57 248.19 79.00
  C 250.66 81.62 252.18 84.28 254.11 86.99
  Q 267.01 105.04 272.44 126.56
  C 272.93 128.51 274.08 131.12 274.24 133.25
  Q 274.52 137.05 275.29 139.52
  Q 275.43 139.99 275.36 140.48
  Q 275.28 141.07 275.43 141.63
  Q 275.52 142.01 275.55 142.41
  L 275.79 146.51
  A 0.66 0.62 -32.8 0 1 275.70 146.87
  Q 275.02 148.01 275.08 149.27
  Z"
/>
<path fill="#ffd333" d="
  M 284.44 78.18
  Q 306.93 116.03 306.64 159.19
  Q 303.64 173.71 299.98 183.25
  Q 292.82 201.90 279.21 219.16
  Q 269.75 231.16 260.12 240.10
  C 223.76 273.83 172.82 297.67 122.51 296.77
  Q 102.02 296.41 81.54 289.11
  Q 43.31 267.48 22.20 228.20
  Q 30.47 238.75 40.24 244.48
  Q 55.82 253.61 75.87 255.88
  Q 106.76 258.97 137.55 250.37
  Q 189.04 236.04 230.61 201.58
  Q 247.26 187.67 260.83 170.65
  Q 268.88 160.54 275.08 149.27
  C 285.70 130.75 293.15 105.56 286.39 84.49
  Q 285.40 81.39 284.44 78.18
  Z"
/>
<path fill="#181818" d="
  M 260.83 170.65
  Q 247.26 187.67 230.61 201.58
  Q 228.96 197.55 231.80 194.31
  Q 232.11 193.95 232.11 193.46
  L 232.11 192.76
  Q 232.11 192.30 232.47 192.02
  Q 232.95 191.65 232.88 191.08
  Q 232.83 190.58 233.14 190.19
  Q 234.09 188.97 234.66 187.55
  C 234.97 186.77 234.78 186.12 235.20 185.24
  Q 235.81 183.95 235.82 183.90
  Q 238.64 175.66 239.73 167.03
  Q 240.63 159.87 239.85 149.76
  Q 239.70 147.85 239.46 147.12
  Q 239.32 146.71 239.39 146.28
  Q 239.61 144.73 238.88 143.32
  Q 238.63 142.86 238.65 142.33
  Q 238.71 140.76 238.11 138.25
  Q 235.12 125.69 230.00 115.80
  C 229.61 115.05 228.88 114.70 228.82 113.72
  Q 228.79 113.21 228.38 112.89
  C 226.57 111.46 226.11 108.95 224.46 107.00
  Q 224.15 106.63 224.11 106.16
  Q 223.95 104.40 222.24 104.71
  C 222.55 103.27 224.19 103.18 224.43 101.23
  L 234.00 86.49
  Q 234.88 85.52 235.39 84.29
  Q 235.58 83.83 236.07 83.88
  Q 236.27 83.90 236.45 83.78
  Q 236.74 83.59 236.75 83.94
  Q 236.78 85.47 237.01 85.84
  Q 239.49 89.99 242.34 93.85
  C 243.70 95.69 244.50 97.91 245.91 99.86
  Q 246.64 100.87 247.45 102.59
  C 248.27 104.35 249.76 105.46 250.27 107.53
  Q 250.58 108.77 251.19 109.76
  Q 253.09 112.83 253.99 116.33
  Q 254.26 117.36 254.66 118.04
  C 255.09 118.78 255.61 119.33 255.74 120.24
  C 256.04 122.33 257.14 124.46 257.59 125.92
  Q 261.09 137.07 261.62 145.75
  Q 261.80 148.74 262.02 150.60
  C 262.53 154.98 262.18 158.40 261.77 162.50
  Q 261.72 162.99 261.46 163.41
  C 260.57 164.87 261.10 166.98 261.22 168.66
  Q 261.26 169.11 261.07 169.51
  Q 260.79 170.09 260.83 170.65
  Z"
/>
<path fill="#000000" d="
  M 1133.51 247.11
  C 1119.93 274.88 1090.89 284.13 1061.76 277.06
  C 1037.31 271.13 1026.88 251.80 1026.33 228.01
  C 1025.63 197.33 1052.61 181.40 1077.74 171.40
  Q 1104.03 160.93 1130.39 150.67
  A 1.20 1.19 75.5 0 0 1131.14 149.39
  Q 1128.45 128.90 1107.74 126.25
  C 1089.65 123.95 1066.34 125.50 1062.63 147.59
  A 0.89 0.89 0.0 0 1 1061.75 148.34
  L 1025.74 148.30
  A 0.65 0.64 -87.2 0 1 1025.10 147.59
  C 1028.10 113.80 1054.32 88.28 1088.49 86.02
  Q 1093.49 85.69 1107.00 86.51
  C 1144.28 88.78 1168.82 110.44 1168.68 149.00
  Q 1168.55 185.64 1168.33 222.28
  Q 1168.27 230.90 1169.31 233.60
  C 1172.25 241.27 1180.66 242.29 1187.96 241.98
  A 0.76 0.76 0.0 0 1 1188.75 242.74
  L 1188.76 277.29
  A 0.44 0.44 0.0 0 1 1188.33 277.73
  C 1165.70 278.30 1137.83 276.91 1134.73 247.33
  Q 1134.50 245.10 1133.51 247.11
  Z
  M 1093.69 191.65
  C 1084.25 195.43 1069.77 201.13 1065.27 211.07
  C 1061.69 218.99 1063.34 229.19 1070.28 234.50
  Q 1074.96 238.08 1084.41 239.61
  C 1101.04 242.30 1117.52 239.33 1129.96 227.61
  A 2.54 2.52 -21.6 0 0 1130.75 225.80
  L 1131.19 177.26
  A 0.48 0.48 0.0 0 0 1130.54 176.81
  Q 1112.13 184.26 1093.69 191.65
  Z"
/>
<path fill="#000000" d="
  M 746.37 147.40
  L 668.42 276.04
  A 0.31 0.31 0.0 0 1 668.16 276.19
  L 628.05 276.18
  A 0.31 0.31 0.0 0 1 627.74 275.87
  L 627.74 90.61
  A 0.31 0.31 0.0 0 1 628.05 90.30
  L 666.43 90.26
  A 0.31 0.31 0.0 0 1 666.74 90.57
  L 666.74 216.57
  A 0.31 0.31 0.0 0 0 667.31 216.73
  L 745.12 90.42
  A 0.31 0.31 0.0 0 1 745.38 90.27
  L 785.57 90.27
  A 0.31 0.31 0.0 0 1 785.88 90.58
  L 785.89 275.87
  A 0.31 0.31 0.0 0 1 785.58 276.18
  L 747.27 276.18
  A 0.31 0.31 0.0 0 1 746.96 275.87
  L 746.95 147.56
  A 0.31 0.31 0.0 0 0 746.37 147.40
  Z"
/>
<path fill="#000000" d="
  M 945.00 129.75
  L 894.18 129.72
  A 0.71 0.70 0.0 0 0 893.47 130.42
  Q 893.49 173.30 888.48 216.00
  Q 887.04 228.29 882.89 242.35
  Q 879.54 253.70 875.68 259.53
  C 863.62 277.78 840.39 283.07 820.55 275.52
  A 1.36 1.35 -79.7 0 1 819.68 274.25
  L 819.69 232.74
  A 0.65 0.65 0.0 0 1 820.51 232.11
  C 825.35 233.39 831.56 234.03 836.54 233.33
  C 852.33 231.14 855.60 208.58 856.79 196.25
  Q 861.85 143.65 860.93 90.85
  A 0.56 0.56 0.0 0 1 861.49 90.28
  L 983.68 90.26
  A 0.67 0.66 90.0 0 1 984.34 90.93
  L 984.34 275.55
  A 0.64 0.63 -89.6 0 1 983.70 276.19
  L 946.34 276.17
  Q 945.39 276.17 945.39 275.23
  L 945.39 130.32
  A 0.57 0.39 -90.0 0 0 945.00 129.75
  Z"
/>
<path fill="#000000" d="
  M 1342.66 147.65
  L 1264.89 276.02
  A 0.36 0.36 0.0 0 1 1264.58 276.19
  L 1224.47 276.18
  A 0.36 0.36 0.0 0 1 1224.11 275.82
  L 1224.11 90.64
  A 0.36 0.36 0.0 0 1 1224.47 90.28
  L 1262.79 90.27
  A 0.36 0.36 0.0 0 1 1263.15 90.63
  L 1263.15 216.46
  A 0.36 0.36 0.0 0 0 1263.82 216.65
  L 1341.55 90.44
  A 0.36 0.36 0.0 0 1 1341.86 90.27
  L 1381.94 90.26
  A 0.36 0.36 0.0 0 1 1382.30 90.62
  L 1382.30 275.83
  A 0.36 0.36 0.0 0 1 1381.94 276.19
  L 1343.70 276.18
  A 0.36 0.36 0.0 0 1 1343.34 275.82
  L 1343.33 147.84
  A 0.36 0.36 0.0 0 0 1342.66 147.65
  Z"
/>
<path fill="#000000" d="
  M 1545.54 198.25
  L 1470.96 198.24
  A 0.71 0.71 0.0 0 0 1470.25 198.95
  L 1470.27 275.48
  A 0.71 0.71 0.0 0 1 1469.56 276.19
  L 1431.99 276.18
  A 0.71 0.71 0.0 0 1 1431.28 275.47
  L 1431.29 91.00
  A 0.71 0.71 0.0 0 1 1432.00 90.29
  L 1469.56 90.26
  A 0.71 0.71 0.0 0 1 1470.27 90.97
  L 1470.26 159.10
  A 0.71 0.71 0.0 0 0 1470.97 159.81
  L 1545.53 159.83
  A 0.71 0.71 0.0 0 0 1546.24 159.12
  L 1546.28 91.05
  A 0.71 0.71 0.0 0 1 1546.99 90.34
  L 1584.51 90.24
  A 0.71 0.71 0.0 0 1 1585.22 90.95
  L 1585.23 275.47
  A 0.71 0.71 0.0 0 1 1584.52 276.18
  L 1546.96 276.18
  A 0.71 0.71 0.0 0 1 1546.25 275.47
  L 1546.25 198.96
  A 0.71 0.71 0.0 0 0 1545.54 198.25
  Z"
/>
<path fill="#504f4f" d="
  M 224.43 101.23
  C 224.19 103.18 222.55 103.27 222.24 104.71
  L 221.76 105.18
  Q 222.48 102.92 224.43 101.23
  Z"
/>
<path fill="#000000" d="
  M 222.24 104.71
  Q 223.95 104.40 224.11 106.16
  Q 224.15 106.63 224.46 107.00
  C 226.11 108.95 226.57 111.46 228.38 112.89
  Q 228.79 113.21 228.82 113.72
  C 228.88 114.70 229.61 115.05 230.00 115.80
  Q 235.12 125.69 238.11 138.25
  Q 238.71 140.76 238.65 142.33
  Q 238.63 142.86 238.88 143.32
  Q 239.61 144.73 239.39 146.28
  Q 239.32 146.71 239.46 147.12
  Q 239.70 147.85 239.85 149.76
  Q 240.63 159.87 239.73 167.03
  Q 238.64 175.66 235.82 183.90
  Q 235.81 183.95 235.20 185.24
  C 234.78 186.12 234.97 186.77 234.66 187.55
  Q 234.09 188.97 233.14 190.19
  Q 232.83 190.58 232.88 191.08
  Q 232.95 191.65 232.47 192.02
  Q 232.11 192.30 232.11 192.76
  L 232.11 193.46
  Q 232.11 193.95 231.80 194.31
  Q 228.96 197.55 230.61 201.58
  Q 189.04 236.04 137.55 250.37
  L 134.41 249.91
  A 0.11 0.10 18.8 0 1 134.33 249.76
  L 134.51 249.42
  A 0.29 0.28 22.2 0 0 134.33 249.01
  Q 130.95 248.08 127.54 247.26
  Q 124.07 246.42 121.15 245.17
  Q 116.07 243.00 111.03 240.75
  C 110.23 240.39 109.93 239.76 109.11 239.39
  Q 103.07 236.67 97.98 232.41
  C 95.54 230.37 92.89 228.36 90.71 226.05
  Q 89.86 225.14 88.84 224.42
  C 87.15 223.20 86.28 221.20 84.69 219.60
  Q 83.17 218.07 80.72 215.03
  Q 74.55 207.39 71.17 201.00
  C 70.44 199.63 68.86 197.99 68.58 195.75
  Q 68.46 194.88 67.00 193.25
  Q 66.65 192.86 66.63 192.33
  Q 66.59 190.92 65.36 190.64
  A 0.43 0.42 29.7 0 1 65.16 189.92
  L 65.57 189.53
  C 117.56 185.20 168.48 158.04 205.85 122.61
  Q 211.55 117.21 221.76 105.18
  L 222.24 104.71
  Z"
/>
<path fill="#504f4f" d="
  M 5.09 158.64
  Q 7.23 165.49 8.55 167.76
  C 14.46 177.94 23.12 182.98 34.02 186.59
  Q 33.33 186.74 33.27 187.16
  A 0.13 0.13 0.0 0 0 33.38 187.31
  Q 33.51 187.33 33.63 187.36
  Q 33.86 187.42 33.37 187.70
  Q 33.26 187.76 33.18 187.89
  Q 33.12 188.00 33.17 188.12
  C 33.76 189.61 33.50 191.22 33.98 192.57
  C 36.58 199.91 39.26 207.92 42.90 214.25
  Q 44.56 217.14 46.10 220.09
  C 47.14 222.09 48.61 223.84 49.78 225.87
  C 50.73 227.51 52.50 228.78 53.20 230.87
  Q 53.34 231.28 53.70 231.53
  C 55.19 232.56 55.80 234.40 56.86 235.47
  Q 59.86 238.50 62.32 242.00
  Q 62.92 242.86 63.59 243.70
  Q 64.13 244.39 65.14 245.08
  Q 67.87 246.96 69.63 249.83
  Q 69.89 250.27 70.34 250.52
  Q 73.91 252.55 75.87 255.88
  Q 55.82 253.61 40.24 244.48
  Q 30.47 238.75 22.20 228.20
  C 13.78 214.60 8.52 197.00 5.88 181.39
  C 4.64 174.02 4.98 166.31 5.09 158.64
  Z"
/>
<path fill="#504f4f" d="
  M 306.64 159.19
  C 305.70 206.23 283.41 249.17 246.86 277.46
  C 199.76 313.91 133.36 318.32 81.54 289.11
  Q 102.02 296.41 122.51 296.77
  C 172.82 297.67 223.76 273.83 260.12 240.10
  Q 269.75 231.16 279.21 219.16
  Q 292.82 201.90 299.98 183.25
  Q 303.64 173.71 306.64 159.19
  Z"
/>
<path fill="#292929" d="
  M 34.02 186.59
  Q 49.27 190.59 65.57 189.53
  L 65.16 189.92
  A 0.43 0.42 29.7 0 0 65.36 190.64
  Q 66.59 190.92 66.63 192.33
  Q 66.65 192.86 67.00 193.25
  Q 68.46 194.88 68.58 195.75
  C 68.86 197.99 70.44 199.63 71.17 201.00
  Q 74.55 207.39 80.72 215.03
  Q 83.17 218.07 84.69 219.60
  C 86.28 221.20 87.15 223.20 88.84 224.42
  Q 89.86 225.14 90.71 226.05
  C 92.89 228.36 95.54 230.37 97.98 232.41
  Q 103.07 236.67 109.11 239.39
  C 109.93 239.76 110.23 240.39 111.03 240.75
  Q 116.07 243.00 121.15 245.17
  Q 124.07 246.42 127.54 247.26
  Q 130.95 248.08 134.33 249.01
  A 0.29 0.28 22.2 0 1 134.51 249.42
  L 134.33 249.76
  A 0.11 0.10 18.8 0 0 134.41 249.91
  L 137.55 250.37
  Q 106.76 258.97 75.87 255.88
  Q 73.91 252.55 70.34 250.52
  Q 69.89 250.27 69.63 249.83
  Q 67.87 246.96 65.14 245.08
  Q 64.13 244.39 63.59 243.70
  Q 62.92 242.86 62.32 242.00
  Q 59.86 238.50 56.86 235.47
  C 55.80 234.40 55.19 232.56 53.70 231.53
  Q 53.34 231.28 53.20 230.87
  C 52.50 228.78 50.73 227.51 49.78 225.87
  C 48.61 223.84 47.14 222.09 46.10 220.09
  Q 44.56 217.14 42.90 214.25
  C 39.26 207.92 36.58 199.91 33.98 192.57
  C 33.50 191.22 33.76 189.61 33.17 188.12
  Q 33.12 188.00 33.18 187.89
  Q 33.26 187.76 33.37 187.70
  Q 33.86 187.42 33.63 187.36
  Q 33.51 187.33 33.38 187.31
  A 0.13 0.13 0.0 0 1 33.27 187.16
  Q 33.33 186.74 34.02 186.59
  Z"
/>
</svg>
