<?xml version="1.0" encoding="UTF-8" standalone="no"?>
<!DOCTYPE svg PUBLIC "-//W3C//DTD SVG 1.1//EN" "http://www.w3.org/Graphics/SVG/1.1/DTD/svg11.dtd">
<svg xmlns="http://www.w3.org/2000/svg" version="1.1" viewBox="0.00 0.00 1066.00 658.00">
<g stroke-width="2.00" fill="none" stroke-linecap="butt">
<path stroke="#a0873f" vector-effect="non-scaling-stroke" d="
  M 529.63 138.53
  Q 535.92 140.07 541.72 142.03
  Q 550.45 144.98 556.30 152.59"
/>
<path stroke="#373635" vector-effect="non-scaling-stroke" d="
  M 556.30 152.59
  Q 554.40 151.96 553.67 152.59
  Q 553.29 152.91 552.80 152.89
  Q 551.57 152.83 550.35 152.85
  C 549.48 152.87 548.70 153.36 547.68 152.99
  Q 547.23 152.83 546.75 152.89
  C 545.43 153.06 544.32 153.37 542.98 153.25
  Q 539.88 152.96 536.75 152.98
  Q 521.97 153.03 507.25 154.40
  Q 502.52 154.84 490.81 157.25
  Q 490.42 157.33 490.15 157.62
  Q 489.94 157.85 489.75 157.87
  Q 485.18 158.27 480.82 159.65
  C 477.91 160.58 475.18 161.06 472.35 161.87
  Q 472.25 161.90 472.18 161.97
  Q 472.07 162.07 471.96 162.18
  Q 471.77 162.37 471.49 162.36
  C 470.15 162.29 469.18 163.08 468.18 163.34
  Q 455.72 166.49 450.01 169.38
  Q 442.10 173.39 434.07 177.16
  C 433.46 177.45 433.10 177.98 432.48 178.33
  Q 424.26 182.92 416.80 188.64
  C 415.84 189.38 414.97 190.44 413.71 191.21
  C 409.74 193.64 406.09 196.81 402.35 199.60
  Q 398.59 202.41 389.66 211.79
  Q 388.01 213.52 387.29 214.71
  Q 387.20 214.86 387.03 214.86
  Q 386.89 214.86 386.73 214.85
  Q 386.54 214.84 386.46 215.02
  C 385.54 217.17 382.20 219.64 380.43 221.25
  Q 380.08 221.56 380.12 222.03
  Q 380.17 222.53 379.84 222.78
  Q 379.26 223.24 379.21 223.30
  Q 372.76 230.92 367.26 239.25
  C 366.11 240.99 365.33 242.71 363.98 244.41
  Q 362.17 246.67 361.06 249.39
  Q 360.91 249.74 360.54 249.85
  Q 360.41 249.89 360.26 249.85
  Q 360.05 249.81 359.92 249.99
  C 357.15 254.13 355.24 259.30 353.22 262.94
  Q 351.48 266.06 349.66 269.15
  Q 348.24 271.58 346.26 273.58
  Q 346.15 273.69 346.01 273.62
  Q 345.88 273.56 345.79 273.47
  Q 345.43 273.13 345.53 273.66
  Q 345.73 274.82 345.42 275.81"
/>
<path stroke="#a0873f" vector-effect="non-scaling-stroke" d="
  M 345.42 275.81
  C 340.76 266.26 342.51 258.20 344.91 247.80"
/>
<path stroke="#252425" vector-effect="non-scaling-stroke" d="
  M 559.85 176.89
  Q 560.02 176.14 559.26 176.11
  Q 558.80 176.09 558.43 176.37
  Q 557.78 176.85 557.06 176.46
  Q 556.64 176.24 556.17 176.21
  C 548.43 175.74 540.88 175.33 532.99 175.59
  Q 525.27 175.84 517.54 176.10
  C 516.58 176.13 515.48 176.58 514.43 176.64
  C 510.59 176.86 506.79 177.54 503.00 178.11
  Q 498.76 178.76 495.83 179.49
  Q 489.24 181.15 489.09 181.18
  Q 482.63 182.59 476.50 185.12
  Q 472.36 186.83 468.02 187.86
  Q 466.23 188.28 464.62 188.98
  C 461.86 190.19 458.84 191.21 456.35 192.46
  C 450.80 195.24 445.28 197.77 440.13 201.23
  C 436.12 203.93 431.12 205.93 427.63 208.74
  Q 423.65 211.96 420.98 213.70
  C 418.83 215.10 417.36 216.55 415.49 218.09
  C 412.45 220.59 409.93 223.57 406.97 226.19
  Q 404.28 228.57 402.47 230.77
  Q 399.22 234.70 397.49 236.60
  A 17.81 1.26 -55.1 0 0 392.90 242.27
  Q 390.52 245.43 387.60 249.61
  Q 387.36 249.96 387.38 250.38
  Q 387.40 250.81 387.15 251.17
  Q 382.60 257.69 378.50 264.48
  A 0.03 0.02 -31.7 0 1 378.49 264.50
  Q 375.91 269.17 371.96 277.39
  C 371.53 278.27 370.69 278.81 370.44 279.81
  Q 370.33 280.30 370.04 280.70
  C 368.93 282.30 368.23 284.11 366.83 285.39
  Q 365.25 286.84 363.44 288.15
  Q 363.05 288.44 362.63 288.19
  Q 360.78 287.12 359.47 288.13"
/>
<path stroke="#977e37" vector-effect="non-scaling-stroke" d="
  M 359.47 288.13
  Q 350.27 284.37 345.42 275.81"
/>
<path stroke="#977e37" vector-effect="non-scaling-stroke" d="
  M 371.69 397.22
  C 352.67 393.99 335.04 385.01 324.24 368.62"
/>
<path stroke="#a0873f" vector-effect="non-scaling-stroke" d="
  M 324.24 368.62
  Q 318.41 357.21 317.26 344.80"
/>
<path stroke="#977e37" vector-effect="non-scaling-stroke" d="
  M 631.69 163.86
  C 649.10 176.71 655.87 194.79 654.03 216.08"
/>
<path stroke="#8e752e" vector-effect="non-scaling-stroke" d="
  M 654.03 216.08
  C 652.33 229.27 648.11 240.63 642.48 252.62"
/>
<path stroke="#836b25" vector-effect="non-scaling-stroke" d="
  M 642.48 252.62
  Q 632.47 271.73 618.51 288.42"
/>
<path stroke="#ffcc25" vector-effect="non-scaling-stroke" d="
  M 618.51 288.42
  Q 618.32 288.24 618.31 288.02
  Q 618.28 287.56 618.67 287.30
  Q 619.27 286.90 619.11 286.25
  A 0.71 0.70 -21.1 0 1 619.47 285.45
  Q 620.85 284.74 621.12 283.24
  Q 621.21 282.76 621.52 282.38
  Q 621.90 281.90 622.19 281.45
  C 623.03 280.16 624.15 279.61 624.76 278.05
  Q 625.35 276.58 625.90 275.88
  C 630.79 269.68 634.83 262.83 638.66 255.95
  Q 638.82 255.67 638.75 255.37
  Q 638.69 255.06 638.95 254.78
  Q 640.11 253.53 640.35 251.87
  Q 640.42 251.40 640.71 251.03
  Q 641.76 249.70 642.16 248.00
  Q 642.27 247.52 642.60 247.14
  L 644.72 244.67
  Q 645.02 244.31 645.09 243.84
  Q 645.29 242.31 645.96 240.96
  C 646.45 239.97 646.39 238.84 647.24 237.98
  Q 647.52 237.70 647.55 237.31
  L 647.94 232.80
  Q 647.98 232.37 647.55 232.37
  L 646.50 232.37
  Q 645.88 232.37 645.88 231.75
  L 645.88 231.25
  Q 645.88 230.75 645.44 230.51
  Q 643.03 229.24 639.78 226.46
  Q 633.17 220.80 621.76 212.48
  Q 618.95 210.43 616.61 209.10
  Q 612.11 206.55 611.99 206.48
  Q 608.41 204.28 606.37 203.38
  Q 596.13 198.80 585.86 194.31
  Q 585.42 194.12 583.61 192.88
  Q 582.48 192.12 581.02 192.07
  A 1.14 1.12 67.3 0 1 580.26 191.75
  Q 578.58 190.16 576.50 190.75
  Q 576.01 190.89 575.54 190.68
  Q 573.70 189.86 571.73 189.73
  Q 571.25 189.70 570.83 189.45
  C 568.87 188.28 566.01 188.19 563.79 187.82
  C 562.47 187.60 561.28 186.69 559.77 186.57
  Q 559.26 186.53 558.99 186.97
  Q 556.02 192.05 553.13 197.19
  C 551.84 199.49 549.91 201.66 548.47 204.04
  C 547.02 206.45 545.51 208.31 544.00 210.50
  Q 543.56 211.14 542.85 211.43
  Q 542.41 211.60 542.23 212.03
  Q 541.71 213.26 540.45 212.75"
/>
<path stroke="#836b25" vector-effect="non-scaling-stroke" d="
  M 540.45 212.75
  L 550.18 199.16"
/>
<path stroke="#8e752e" vector-effect="non-scaling-stroke" d="
  M 550.18 199.16
  Q 557.02 188.90 559.85 176.89"
/>
<path stroke="#977e37" vector-effect="non-scaling-stroke" d="
  M 559.85 176.89
  Q 563.11 163.07 556.30 152.59"
/>
<path stroke="#111113" vector-effect="non-scaling-stroke" d="
  M 550.18 199.16
  Q 550.13 197.07 546.91 197.53
  C 541.51 198.29 535.67 197.80 530.25 197.37
  Q 525.05 196.95 512.26 198.62
  C 510.55 198.85 509.12 199.30 507.57 199.36
  C 502.44 199.54 498.29 201.44 493.39 202.21
  C 486.59 203.29 479.38 206.07 473.11 208.88
  C 471.35 209.66 468.73 210.62 466.64 211.76
  Q 464.13 213.12 461.90 214.05
  C 458.62 215.41 455.57 217.37 452.43 218.99
  Q 448.19 221.18 442.62 225.11
  Q 432.66 232.15 427.47 236.85
  Q 427.33 236.98 426.76 237.37
  C 426.08 237.83 425.90 238.57 425.42 239.04
  Q 424.20 240.25 422.88 241.35
  Q 421.81 242.24 420.48 243.76
  Q 419.06 245.38 416.17 248.18
  C 414.15 250.13 411.49 254.00 407.69 258.09
  C 406.76 259.10 406.12 260.50 405.27 261.42
  C 402.57 264.34 400.54 267.83 398.46 270.82
  C 395.77 274.68 394.36 278.95 391.63 282.76
  Q 391.36 283.14 391.36 284.17
  A 1.17 1.14 70.0 0 1 390.99 285.00
  C 389.66 286.20 389.25 286.73 388.40 288.57
  Q 387.77 289.95 386.29 290.83
  Q 386.23 290.87 386.25 290.88
  Q 386.37 290.95 386.49 291.00
  A 0.14 0.14 0.0 0 1 386.50 291.24
  Q 386.22 291.42 385.89 291.37
  Q 385.87 291.37 385.87 291.34
  Q 385.87 291.33 385.88 291.32
  Q 385.88 291.29 385.93 291.29
  L 393.57 292.34"
/>
<path stroke="#8e752e" vector-effect="non-scaling-stroke" d="
  M 393.57 292.34
  C 382.39 293.53 369.84 292.76 359.47 288.13"
/>
<path stroke="#836809" vector-effect="non-scaling-stroke" d="
  M 618.51 288.42
  Q 598.03 312.54 572.81 331.84
  C 532.87 362.41 485.48 385.72 435.98 395.60
  Q 417.19 399.35 398.05 399.60"
/>
<path stroke="#8e7213" vector-effect="non-scaling-stroke" d="
  M 398.05 399.60
  Q 385.43 399.62 372.98 397.59"
/>
<path stroke="#977b1b" vector-effect="non-scaling-stroke" d="
  M 372.98 397.59
  Q 372.23 397.48 371.69 397.22"
/>
<path stroke="#ffcc25" vector-effect="non-scaling-stroke" d="
  M 371.69 397.22
  Q 371.46 395.67 368.50 394.63
  C 364.80 393.34 362.75 389.59 362.20 385.55
  C 361.39 379.60 360.74 373.67 360.65 367.66
  C 360.61 365.17 359.97 362.71 360.17 360.06
  Q 360.33 357.87 360.22 356.42
  C 359.64 349.28 359.20 339.80 360.87 333.24
  Q 361.24 331.79 361.21 330.99
  Q 361.19 330.50 361.36 330.04
  Q 361.65 329.27 361.87 328.00
  C 363.64 317.74 364.90 307.39 367.15 297.23
  Q 367.47 295.82 367.36 294.26
  Q 367.33 293.79 367.80 293.69
  C 369.77 293.31 371.91 294.01 373.40 294.21
  C 375.50 294.49 378.18 295.29 380.55 294.79
  Q 382.51 294.37 383.99 294.42
  C 387.05 294.51 389.57 294.13 393.11 293.87
  Q 395.10 293.72 396.97 292.90
  Q 397.43 292.69 397.92 292.75
  C 404.86 293.59 408.87 291.28 414.98 290.37
  Q 418.17 289.89 417.67 288.37"
/>
<path stroke="#836809" vector-effect="non-scaling-stroke" d="
  M 417.67 288.37
  C 463.89 275.84 508.93 249.31 540.45 212.75"
/>
<path stroke="#836b25" vector-effect="non-scaling-stroke" d="
  M 417.67 288.37
  Q 405.53 291.27 393.57 292.34"
/>
<path stroke="#373635" vector-effect="non-scaling-stroke" d="
  M 324.24 368.62
  Q 326.99 375.11 332.56 380.39
  Q 334.64 382.37 335.33 384.07
  Q 336.23 386.26 336.46 388.72
  A 1.69 1.61 -68.2 0 0 336.80 389.57
  Q 337.33 390.23 337.55 391.01
  Q 341.31 404.27 345.76 417.32
  Q 345.88 417.69 346.39 418.59
  C 347.01 419.70 346.89 421.05 347.29 421.99
  Q 354.21 438.37 364.01 453.19
  C 365.78 455.86 367.69 459.16 369.71 462.03
  Q 369.74 462.06 371.33 463.72
  Q 372.17 464.59 372.84 466.15
  Q 373.48 467.65 376.10 470.77
  C 377.71 472.68 378.92 475.10 380.65 477.11
  Q 381.66 478.28 381.80 481.52"
/>
<path stroke="#232323" vector-effect="non-scaling-stroke" d="
  M 320.06 386.14
  Q 319.76 378.04 319.35 376.00
  C 318.61 372.31 318.26 369.17 317.22 365.98"
/>
<path stroke="#252425" vector-effect="non-scaling-stroke" d="
  M 372.98 397.59
  Q 371.81 397.37 372.69 399.13
  Q 373.41 400.57 373.57 402.19
  C 373.66 403.12 374.07 403.54 374.71 404.10
  Q 375.01 404.37 375.11 404.75
  Q 375.35 405.65 376.01 406.18
  Q 376.39 406.48 376.55 406.94
  Q 376.92 408.01 377.37 409.05
  C 377.85 410.13 378.05 411.81 378.90 413.02
  C 380.11 414.73 381.62 417.97 382.45 419.84
  Q 385.19 426.02 387.90 430.11
  Q 389.58 432.65 390.73 434.65
  C 393.34 439.18 396.40 443.25 399.11 447.67
  Q 399.77 448.74 400.75 450.01
  Q 401.61 451.14 402.41 452.33
  C 403.27 453.61 404.39 454.36 405.37 455.56
  Q 406.81 457.33 407.55 458.03
  C 411.20 461.53 414.23 465.25 418.06 468.82
  Q 420.47 471.07 422.59 473.60
  Q 422.73 473.77 422.93 473.85
  C 424.22 474.35 425.48 476.09 426.60 477.01
  C 428.18 478.30 429.66 480.31 431.58 481.52
  Q 434.06 483.08 434.08 483.09
  Q 436.37 484.74 438.71 486.34
  Q 439.14 486.64 439.40 487.10
  Q 440.36 488.84 442.53 488.92
  Q 443.54 488.95 443.38 489.95
  Q 443.32 490.27 442.95 490.30
  Q 442.64 490.33 442.84 490.57
  L 443.77 491.66"
/>
<path stroke="#8e752e" vector-effect="non-scaling-stroke" d="
  M 708.27 319.89
  C 702.24 336.84 691.13 354.34 680.04 368.52"
/>
<path stroke="#111113" vector-effect="non-scaling-stroke" d="
  M 680.04 368.52
  Q 680.44 367.44 680.32 366.68
  Q 680.29 366.49 680.46 366.39
  Q 680.61 366.31 680.75 366.24
  A 0.23 0.23 0.0 0 0 680.76 365.84
  Q 678.56 364.65 679.12 362.13
  Q 679.79 359.09 679.89 355.44
  C 679.97 352.15 679.05 348.35 678.78 344.75
  Q 678.77 344.54 678.57 344.46
  Q 678.40 344.39 678.40 344.26
  Q 678.37 335.51 677.17 326.87
  C 676.85 324.59 675.79 322.05 675.54 319.46
  A 1.71 1.67 23.4 0 0 675.18 318.58
  C 673.56 316.57 674.44 314.86 673.90 312.73
  Q 672.26 306.35 670.04 300.16
  C 668.30 295.35 665.63 290.40 663.33 285.52
  Q 663.11 285.07 663.09 284.57
  Q 663.07 284.06 662.82 283.61
  C 660.28 278.97 657.65 274.70 655.23 269.73
  Q 653.01 265.18 651.64 264.11
  C 650.70 263.37 649.79 263.01 649.16 261.93
  C 647.58 259.21 646.45 255.89 643.31 254.64
  A 0.52 0.51 -69.2 0 1 643.02 253.98
  Q 643.29 253.27 642.48 252.62"
/>
<path stroke="#977e37" vector-effect="non-scaling-stroke" d="
  M 712.22 242.56
  Q 718.61 261.27 717.64 279.23
  Q 716.53 299.76 708.27 319.89"
/>
<path stroke="#252425" vector-effect="non-scaling-stroke" d="
  M 708.27 319.89
  Q 707.49 319.20 708.08 318.44
  Q 708.34 318.10 708.05 317.80
  Q 707.80 317.54 707.89 317.16
  Q 707.98 316.77 707.71 316.47
  Q 707.12 315.82 707.13 314.96
  Q 707.13 314.47 706.71 314.20
  Q 706.20 313.87 706.29 313.33
  Q 706.36 312.95 706.25 312.57
  Q 705.26 309.33 704.66 305.99
  Q 703.94 301.98 697.15 287.61
  C 695.72 284.60 694.91 280.34 693.26 276.94
  Q 687.64 265.33 680.90 254.34
  C 679.36 251.83 677.28 249.81 675.62 247.28
  Q 669.65 238.17 662.76 231.61
  Q 660.86 229.80 659.65 228.25
  C 658.25 226.46 655.84 223.90 655.36 222.36
  Q 654.42 219.40 654.62 213.46
  Q 654.64 212.91 654.45 213.40
  Q 654.38 213.58 654.44 213.76
  Q 654.96 215.34 654.03 216.08"
/>
<path stroke="#836809" vector-effect="non-scaling-stroke" d="
  M 645.97 405.44
  C 598.89 447.78 539.58 478.48 476.82 488.90"
/>
<path stroke="#111113" vector-effect="non-scaling-stroke" d="
  M 476.82 488.90
  Q 475.49 488.48 474.98 487.59
  Q 474.73 487.16 474.29 486.94
  Q 472.62 486.11 470.72 486.14
  A 1.15 1.15 0.0 0 1 469.76 485.65
  C 469.39 485.13 469.29 484.83 468.70 484.49
  C 466.54 483.23 463.85 481.44 461.49 480.67
  Q 460.92 480.48 460.57 479.98
  Q 460.37 479.69 460.08 479.50
  L 450.35 473.14
  Q 449.94 472.87 449.45 472.87
  Q 448.99 472.87 448.68 472.56
  Q 447.38 471.24 445.98 470.49
  Q 443.70 469.26 443.12 468.77
  Q 440.61 466.65 438.38 464.24
  Q 438.08 463.92 437.63 463.90
  Q 437.29 463.89 437.12 463.63
  Q 436.28 462.28 435.17 461.64
  A 2.82 2.67 83.5 0 1 434.48 461.06
  C 433.57 459.98 433.14 459.28 431.84 458.43
  Q 430.34 457.46 429.27 456.00
  Q 429.18 455.87 429.02 455.87
  Q 428.85 455.87 428.68 455.87
  Q 428.43 455.86 428.27 455.67
  L 425.63 452.40
  A 0.82 0.82 0.0 0 0 425.09 452.10
  Q 424.57 452.05 424.30 451.64
  C 422.68 449.13 419.98 447.68 418.62 444.94
  Q 418.08 443.85 417.31 442.94
  Q 415.89 441.28 415.32 440.11
  Q 412.47 434.17 407.78 429.54
  C 406.58 428.36 406.23 427.23 405.48 425.81
  C 405.01 424.95 404.01 424.46 403.88 423.16
  Q 403.83 422.70 403.58 422.32
  Q 401.49 419.11 399.58 415.81
  A 0.25 0.15 31.7 0 1 399.54 415.73
  Q 398.37 413.20 397.11 410.73
  C 396.59 409.70 396.76 408.64 396.06 407.62
  C 394.59 405.48 393.78 403.58 392.85 401.16
  Q 392.67 400.68 392.18 400.48
  L 391.83 400.33
  Q 390.84 399.93 391.91 399.88
  L 398.05 399.60"
/>
<path stroke="#a0873f" vector-effect="non-scaling-stroke" d="
  M 742.58 352.39
  Q 738.80 380.20 726.03 405.02
  Q 723.58 409.79 716.57 421.50"
/>
<path stroke="#977e37" vector-effect="non-scaling-stroke" d="
  M 716.57 421.50
  C 670.70 490.67 588.77 539.61 506.20 547.33"
/>
<path stroke="#a0873f" vector-effect="non-scaling-stroke" d="
  M 506.20 547.33
  C 486.00 548.52 467.04 548.03 447.26 543.45
  Q 437.51 541.20 424.18 535.50"
/>
<path stroke="#a0873f" vector-effect="non-scaling-stroke" d="
  M 346.24 456.63
  C 356.98 467.36 367.60 475.64 381.80 481.52"
/>
<path stroke="#977e37" vector-effect="non-scaling-stroke" d="
  M 381.80 481.52
  Q 411.44 492.97 443.77 491.66"
/>
<path stroke="#8e752e" vector-effect="non-scaling-stroke" d="
  M 443.77 491.66
  L 459.31 491.05"
/>
<path stroke="#ffcc25" vector-effect="non-scaling-stroke" d="
  M 459.31 491.05
  Q 460.64 491.96 458.43 491.85
  Q 457.19 491.79 458.06 492.67
  L 461.26 495.88
  Q 461.63 496.25 462.12 496.45
  Q 464.47 497.38 466.83 498.29
  C 467.95 498.72 469.35 498.85 470.59 499.43
  Q 472.29 500.21 473.30 500.45
  C 475.94 501.09 478.47 502.24 480.95 502.81
  Q 487.87 504.40 494.69 506.35
  C 497.72 507.22 500.96 507.59 504.09 508.17
  C 515.96 510.35 528.26 510.06 541.50 509.25
  Q 549.68 508.75 554.37 507.62
  C 554.96 507.48 555.56 507.75 556.01 507.65
  Q 565.88 505.42 575.75 503.14
  Q 577.57 502.72 581.20 501.32
  C 582.54 500.81 583.73 501.41 585.18 500.76
  C 588.16 499.42 591.43 498.41 594.18 497.03
  Q 605.35 491.43 616.09 485.04
  C 618.79 483.43 621.69 481.95 624.09 480.01
  C 636.59 469.91 647.46 459.49 657.41 447.18
  Q 662.15 441.34 666.56 434.03
  C 673.91 421.86 678.89 410.39 683.25 397.75
  Q 683.51 396.97 683.85 397.72
  Q 683.86 397.76 683.87 397.99
  Q 683.88 398.28 683.97 398.01
  Q 686.20 391.22 686.90 387.75
  C 688.05 382.03 688.15 375.30 689.14 368.96
  Q 689.57 366.16 689.81 363.33
  C 689.93 361.81 690.56 360.59 690.89 359.05
  Q 690.94 358.80 690.76 358.99
  Q 690.55 359.20 690.36 359.07
  Q 689.84 358.74 689.43 359.20
  Q 688.63 360.08 687.53 360.53
  Q 687.10 360.71 686.81 361.08
  Q 682.73 366.40 679.28 372.14
  Q 679.22 372.24 679.14 372.29
  Q 679.01 372.36 678.89 372.38
  Q 678.65 372.42 678.64 372.66
  Q 678.63 373.32 678.06 373.47
  Q 677.61 373.59 677.33 373.97
  Q 676.54 375.07 675.73 376.16
  C 674.59 377.70 672.72 378.11 672.22 380.48
  Q 672.11 380.96 671.77 381.30
  C 670.18 382.88 669.51 384.85 668.04 386.04
  Q 666.06 387.66 664.69 389.76
  Q 663.35 391.81 661.93 392.96
  Q 659.44 394.99 657.22 397.31
  C 654.50 400.15 651.77 402.21 648.99 404.71
  Q 647.89 405.70 645.97 405.44"
/>
<path stroke="#836b25" vector-effect="non-scaling-stroke" d="
  M 645.97 405.44
  Q 664.69 388.36 680.04 368.52"
/>
<path stroke="#8e7213" vector-effect="non-scaling-stroke" d="
  M 459.31 491.05
  L 476.82 488.90"
/>
<path stroke="#373635" vector-effect="non-scaling-stroke" d="
  M 506.20 547.33
  C 509.29 550.19 512.02 549.16 515.81 549.06
  Q 516.28 549.04 516.71 548.82
  Q 518.25 547.99 519.96 548.36
  Q 520.46 548.47 520.94 548.29
  Q 522.18 547.84 523.33 548.46
  Q 523.74 548.68 524.20 548.72
  Q 529.60 549.16 534.89 548.20
  Q 539.12 547.43 541.19 547.38
  Q 544.39 547.31 547.58 547.44
  Q 551.03 547.59 554.36 546.94
  Q 558.75 546.08 563.20 545.57
  C 565.18 545.34 567.27 544.67 569.31 544.36
  C 572.88 543.83 575.36 542.93 578.49 541.85
  C 580.18 541.26 581.96 541.27 583.73 540.86
  C 584.79 540.62 585.80 539.73 587.25 539.89
  Q 587.55 539.92 587.66 539.64
  Q 587.74 539.42 587.98 539.34
  Q 593.98 537.40 599.98 535.46
  C 602.33 534.70 604.47 533.54 606.70 532.47
  Q 606.88 532.38 607.08 532.38
  L 607.55 532.38
  Q 607.99 532.38 608.37 532.16
  Q 610.64 530.77 613.12 529.86
  Q 613.51 529.71 613.88 529.82
  A 0.94 0.89 -46.8 0 0 614.52 529.78
  L 618.31 528.13
  Q 618.58 528.01 618.75 527.77
  Q 618.85 527.63 619.02 527.53
  Q 620.88 526.52 622.69 525.46
  C 623.39 525.05 624.28 525.09 625.00 524.42
  C 626.69 522.84 628.91 521.47 630.85 520.14
  Q 633.14 518.57 635.56 517.19
  C 640.32 514.48 644.73 511.30 649.25 508.25
  Q 654.55 504.67 667.19 492.93
  C 671.60 488.84 674.90 483.88 679.27 479.76
  Q 682.40 476.82 685.03 473.41
  Q 691.63 464.84 697.53 455.79
  C 699.85 452.25 701.80 447.23 704.77 443.26
  Q 704.87 443.12 704.73 443.02
  L 704.73 443.02
  Q 704.56 442.89 704.49 442.99
  L 702.86 445.46
  Q 702.67 445.76 702.51 445.44
  L 702.09 444.59
  A 0.50 0.49 46.9 0 1 702.10 444.14
  Q 703.11 442.20 704.50 440.50
  Q 706.21 438.40 707.16 437.03
  Q 708.59 434.96 710.34 433.13
  Q 710.39 433.07 710.39 432.99
  Q 710.39 432.85 710.39 432.71
  Q 710.40 432.44 710.58 432.24
  Q 712.22 430.48 713.11 428.32
  Q 713.89 426.41 714.87 424.98
  Q 716.05 423.24 716.57 421.50"
/>
</g>
<path fill="#403f3d" d="
  M 529.63 138.53
  Q 535.92 140.07 541.72 142.03
  Q 550.45 144.98 556.30 152.59
  Q 554.40 151.96 553.67 152.59
  Q 553.29 152.91 552.80 152.89
  Q 551.57 152.83 550.35 152.85
  C 549.48 152.87 548.70 153.36 547.68 152.99
  Q 547.23 152.83 546.75 152.89
  C 545.43 153.06 544.32 153.37 542.98 153.25
  Q 539.88 152.96 536.75 152.98
  Q 521.97 153.03 507.25 154.40
  Q 502.52 154.84 490.81 157.25
  Q 490.42 157.33 490.15 157.62
  Q 489.94 157.85 489.75 157.87
  Q 485.18 158.27 480.82 159.65
  C 477.91 160.58 475.18 161.06 472.35 161.87
  Q 472.25 161.90 472.18 161.97
  Q 472.07 162.07 471.96 162.18
  Q 471.77 162.37 471.49 162.36
  C 470.15 162.29 469.18 163.08 468.18 163.34
  Q 455.72 166.49 450.01 169.38
  Q 442.10 173.39 434.07 177.16
  C 433.46 177.45 433.10 177.98 432.48 178.33
  Q 424.26 182.92 416.80 188.64
  C 415.84 189.38 414.97 190.44 413.71 191.21
  C 409.74 193.64 406.09 196.81 402.35 199.60
  Q 398.59 202.41 389.66 211.79
  Q 388.01 213.52 387.29 214.71
  Q 387.20 214.86 387.03 214.86
  Q 386.89 214.86 386.73 214.85
  Q 386.54 214.84 386.46 215.02
  C 385.54 217.17 382.20 219.64 380.43 221.25
  Q 380.08 221.56 380.12 222.03
  Q 380.17 222.53 379.84 222.78
  Q 379.26 223.24 379.21 223.30
  Q 372.76 230.92 367.26 239.25
  C 366.11 240.99 365.33 242.71 363.98 244.41
  Q 362.17 246.67 361.06 249.39
  Q 360.91 249.74 360.54 249.85
  Q 360.41 249.89 360.26 249.85
  Q 360.05 249.81 359.92 249.99
  C 357.15 254.13 355.24 259.30 353.22 262.94
  Q 351.48 266.06 349.66 269.15
  Q 348.24 271.58 346.26 273.58
  Q 346.15 273.69 346.01 273.62
  Q 345.88 273.56 345.79 273.47
  Q 345.43 273.13 345.53 273.66
  Q 345.73 274.82 345.42 275.81
  C 340.76 266.26 342.51 258.20 344.91 247.80
  Q 348.76 240.65 352.87 233.29
  C 355.19 229.13 358.37 225.60 361.24 221.72
  C 394.79 176.44 447.09 147.06 502.41 139.67
  Q 516.04 137.84 529.63 138.53
  Z"
/>
<path fill="#ffcf40" d="
  M 529.63 138.53
  Q 567.29 137.93 600.06 149.95
  Q 603.84 151.34 614.08 155.40
  C 617.73 156.85 620.94 159.09 624.64 160.52
  Q 628.52 162.02 631.69 163.86
  C 649.10 176.71 655.87 194.79 654.03 216.08
  C 652.33 229.27 648.11 240.63 642.48 252.62
  Q 632.47 271.73 618.51 288.42
  Q 618.32 288.24 618.31 288.02
  Q 618.28 287.56 618.67 287.30
  Q 619.27 286.90 619.11 286.25
  A 0.71 0.70 -21.1 0 1 619.47 285.45
  Q 620.85 284.74 621.12 283.24
  Q 621.21 282.76 621.52 282.38
  Q 621.90 281.90 622.19 281.45
  C 623.03 280.16 624.15 279.61 624.76 278.05
  Q 625.35 276.58 625.90 275.88
  C 630.79 269.68 634.83 262.83 638.66 255.95
  Q 638.82 255.67 638.75 255.37
  Q 638.69 255.06 638.95 254.78
  Q 640.11 253.53 640.35 251.87
  Q 640.42 251.40 640.71 251.03
  Q 641.76 249.70 642.16 248.00
  Q 642.27 247.52 642.60 247.14
  L 644.72 244.67
  Q 645.02 244.31 645.09 243.84
  Q 645.29 242.31 645.96 240.96
  C 646.45 239.97 646.39 238.84 647.24 237.98
  Q 647.52 237.70 647.55 237.31
  L 647.94 232.80
  Q 647.98 232.37 647.55 232.37
  L 646.50 232.37
  Q 645.88 232.37 645.88 231.75
  L 645.88 231.25
  Q 645.88 230.75 645.44 230.51
  Q 643.03 229.24 639.78 226.46
  Q 633.17 220.80 621.76 212.48
  Q 618.95 210.43 616.61 209.10
  Q 612.11 206.55 611.99 206.48
  Q 608.41 204.28 606.37 203.38
  Q 596.13 198.80 585.86 194.31
  Q 585.42 194.12 583.61 192.88
  Q 582.48 192.12 581.02 192.07
  A 1.14 1.12 67.3 0 1 580.26 191.75
  Q 578.58 190.16 576.50 190.75
  Q 576.01 190.89 575.54 190.68
  Q 573.70 189.86 571.73 189.73
  Q 571.25 189.70 570.83 189.45
  C 568.87 188.28 566.01 188.19 563.79 187.82
  C 562.47 187.60 561.28 186.69 559.77 186.57
  Q 559.26 186.53 558.99 186.97
  Q 556.02 192.05 553.13 197.19
  C 551.84 199.49 549.91 201.66 548.47 204.04
  C 547.02 206.45 545.51 208.31 544.00 210.50
  Q 543.56 211.14 542.85 211.43
  Q 542.41 211.60 542.23 212.03
  Q 541.71 213.26 540.45 212.75
  L 550.18 199.16
  Q 557.02 188.90 559.85 176.89
  Q 563.11 163.07 556.30 152.59
  Q 550.45 144.98 541.72 142.03
  Q 535.92 140.07 529.63 138.53
  Z"
/>
<path fill="#2e2d2d" d="
  M 556.30 152.59
  Q 563.11 163.07 559.85 176.89
  Q 560.02 176.14 559.26 176.11
  Q 558.80 176.09 558.43 176.37
  Q 557.78 176.85 557.06 176.46
  Q 556.64 176.24 556.17 176.21
  C 548.43 175.74 540.88 175.33 532.99 175.59
  Q 525.27 175.84 517.54 176.10
  C 516.58 176.13 515.48 176.58 514.43 176.64
  C 510.59 176.86 506.79 177.54 503.00 178.11
  Q 498.76 178.76 495.83 179.49
  Q 489.24 181.15 489.09 181.18
  Q 482.63 182.59 476.50 185.12
  Q 472.36 186.83 468.02 187.86
  Q 466.23 188.28 464.62 188.98
  C 461.86 190.19 458.84 191.21 456.35 192.46
  C 450.80 195.24 445.28 197.77 440.13 201.23
  C 436.12 203.93 431.12 205.93 427.63 208.74
  Q 423.65 211.96 420.98 213.70
  C 418.83 215.10 417.36 216.55 415.49 218.09
  C 412.45 220.59 409.93 223.57 406.97 226.19
  Q 404.28 228.57 402.47 230.77
  Q 399.22 234.70 397.49 236.60
  A 17.81 1.26 -55.1 0 0 392.90 242.27
  Q 390.52 245.43 387.60 249.61
  Q 387.36 249.96 387.38 250.38
  Q 387.40 250.81 387.15 251.17
  Q 382.60 257.69 378.50 264.48
  A 0.03 0.02 -31.7 0 1 378.49 264.50
  Q 375.91 269.17 371.96 277.39
  C 371.53 278.27 370.69 278.81 370.44 279.81
  Q 370.33 280.30 370.04 280.70
  C 368.93 282.30 368.23 284.11 366.83 285.39
  Q 365.25 286.84 363.44 288.15
  Q 363.05 288.44 362.63 288.19
  Q 360.78 287.12 359.47 288.13
  Q 350.27 284.37 345.42 275.81
  Q 345.73 274.82 345.53 273.66
  Q 345.43 273.13 345.79 273.47
  Q 345.88 273.56 346.01 273.62
  Q 346.15 273.69 346.26 273.58
  Q 348.24 271.58 349.66 269.15
  Q 351.48 266.06 353.22 262.94
  C 355.24 259.30 357.15 254.13 359.92 249.99
  Q 360.05 249.81 360.26 249.85
  Q 360.41 249.89 360.54 249.85
  Q 360.91 249.74 361.06 249.39
  Q 362.17 246.67 363.98 244.41
  C 365.33 242.71 366.11 240.99 367.26 239.25
  Q 372.76 230.92 379.21 223.30
  Q 379.26 223.24 379.84 222.78
  Q 380.17 222.53 380.12 222.03
  Q 380.08 221.56 380.43 221.25
  C 382.20 219.64 385.54 217.17 386.46 215.02
  Q 386.54 214.84 386.73 214.85
  Q 386.89 214.86 387.03 214.86
  Q 387.20 214.86 387.29 214.71
  Q 388.01 213.52 389.66 211.79
  Q 398.59 202.41 402.35 199.60
  C 406.09 196.81 409.74 193.64 413.71 191.21
  C 414.97 190.44 415.84 189.38 416.80 188.64
  Q 424.26 182.92 432.48 178.33
  C 433.10 177.98 433.46 177.45 434.07 177.16
  Q 442.10 173.39 450.01 169.38
  Q 455.72 166.49 468.18 163.34
  C 469.18 163.08 470.15 162.29 471.49 162.36
  Q 471.77 162.37 471.96 162.18
  Q 472.07 162.07 472.18 161.97
  Q 472.25 161.90 472.35 161.87
  C 475.18 161.06 477.91 160.58 480.82 159.65
  Q 485.18 158.27 489.75 157.87
  Q 489.94 157.85 490.15 157.62
  Q 490.42 157.33 490.81 157.25
  Q 502.52 154.84 507.25 154.40
  Q 521.97 153.03 536.75 152.98
  Q 539.88 152.96 542.98 153.25
  C 544.32 153.37 545.43 153.06 546.75 152.89
  Q 547.23 152.83 547.68 152.99
  C 548.70 153.36 549.48 152.87 550.35 152.85
  Q 551.57 152.83 552.80 152.89
  Q 553.29 152.91 553.67 152.59
  Q 554.40 151.96 556.30 152.59
  Z"
/>
<path fill="#2e2d2d" d="
  M 631.69 163.86
  Q 639.78 167.63 646.61 172.81
  C 649.85 175.26 653.86 177.13 656.83 179.66
  C 662.11 184.15 667.38 187.88 671.93 192.28
  C 676.08 196.28 680.31 199.76 684.06 204.18
  C 689.29 210.32 695.45 216.23 699.82 222.37
  Q 706.85 232.24 712.22 242.56
  Q 718.61 261.27 717.64 279.23
  Q 716.53 299.76 708.27 319.89
  Q 707.49 319.20 708.08 318.44
  Q 708.34 318.10 708.05 317.80
  Q 707.80 317.54 707.89 317.16
  Q 707.98 316.77 707.71 316.47
  Q 707.12 315.82 707.13 314.96
  Q 707.13 314.47 706.71 314.20
  Q 706.20 313.87 706.29 313.33
  Q 706.36 312.95 706.25 312.57
  Q 705.26 309.33 704.66 305.99
  Q 703.94 301.98 697.15 287.61
  C 695.72 284.60 694.91 280.34 693.26 276.94
  Q 687.64 265.33 680.90 254.34
  C 679.36 251.83 677.28 249.81 675.62 247.28
  Q 669.65 238.17 662.76 231.61
  Q 660.86 229.80 659.65 228.25
  C 658.25 226.46 655.84 223.90 655.36 222.36
  Q 654.42 219.40 654.62 213.46
  Q 654.64 212.91 654.45 213.40
  Q 654.38 213.58 654.44 213.76
  Q 654.96 215.34 654.03 216.08
  C 655.87 194.79 649.10 176.71 631.69 163.86
  Z"
/>
<path fill="#1c1b1c" d="
  M 559.85 176.89
  Q 557.02 188.90 550.18 199.16
  Q 550.13 197.07 546.91 197.53
  C 541.51 198.29 535.67 197.80 530.25 197.37
  Q 525.05 196.95 512.26 198.62
  C 510.55 198.85 509.12 199.30 507.57 199.36
  C 502.44 199.54 498.29 201.44 493.39 202.21
  C 486.59 203.29 479.38 206.07 473.11 208.88
  C 471.35 209.66 468.73 210.62 466.64 211.76
  Q 464.13 213.12 461.90 214.05
  C 458.62 215.41 455.57 217.37 452.43 218.99
  Q 448.19 221.18 442.62 225.11
  Q 432.66 232.15 427.47 236.85
  Q 427.33 236.98 426.76 237.37
  C 426.08 237.83 425.90 238.57 425.42 239.04
  Q 424.20 240.25 422.88 241.35
  Q 421.81 242.24 420.48 243.76
  Q 419.06 245.38 416.17 248.18
  C 414.15 250.13 411.49 254.00 407.69 258.09
  C 406.76 259.10 406.12 260.50 405.27 261.42
  C 402.57 264.34 400.54 267.83 398.46 270.82
  C 395.77 274.68 394.36 278.95 391.63 282.76
  Q 391.36 283.14 391.36 284.17
  A 1.17 1.14 70.0 0 1 390.99 285.00
  C 389.66 286.20 389.25 286.73 388.40 288.57
  Q 387.77 289.95 386.29 290.83
  Q 386.23 290.87 386.25 290.88
  Q 386.37 290.95 386.49 291.00
  A 0.14 0.14 0.0 0 1 386.50 291.24
  Q 386.22 291.42 385.89 291.37
  Q 385.87 291.37 385.87 291.34
  Q 385.87 291.33 385.88 291.32
  Q 385.88 291.29 385.93 291.29
  L 393.57 292.34
  C 382.39 293.53 369.84 292.76 359.47 288.13
  Q 360.78 287.12 362.63 288.19
  Q 363.05 288.44 363.44 288.15
  Q 365.25 286.84 366.83 285.39
  C 368.23 284.11 368.93 282.30 370.04 280.70
  Q 370.33 280.30 370.44 279.81
  C 370.69 278.81 371.53 278.27 371.96 277.39
  Q 375.91 269.17 378.49 264.50
  A 0.03 0.02 -31.7 0 0 378.50 264.48
  Q 382.60 257.69 387.15 251.17
  Q 387.40 250.81 387.38 250.38
  Q 387.36 249.96 387.60 249.61
  Q 390.52 245.43 392.90 242.27
  A 17.81 1.26 -55.1 0 1 397.49 236.60
  Q 399.22 234.70 402.47 230.77
  Q 404.28 228.57 406.97 226.19
  C 409.93 223.57 412.45 220.59 415.49 218.09
  C 417.36 216.55 418.83 215.10 420.98 213.70
  Q 423.65 211.96 427.63 208.74
  C 431.12 205.93 436.12 203.93 440.13 201.23
  C 445.28 197.77 450.80 195.24 456.35 192.46
  C 458.84 191.21 461.86 190.19 464.62 188.98
  Q 466.23 188.28 468.02 187.86
  Q 472.36 186.83 476.50 185.12
  Q 482.63 182.59 489.09 181.18
  Q 489.24 181.15 495.83 179.49
  Q 498.76 178.76 503.00 178.11
  C 506.79 177.54 510.59 176.86 514.43 176.64
  C 515.48 176.58 516.58 176.13 517.54 176.10
  Q 525.27 175.84 532.99 175.59
  C 540.88 175.33 548.43 175.74 556.17 176.21
  Q 556.64 176.24 557.06 176.46
  Q 557.78 176.85 558.43 176.37
  Q 558.80 176.09 559.26 176.11
  Q 560.02 176.14 559.85 176.89
  Z"
/>
<path fill="#ffc809" d="
  M 618.51 288.42
  Q 598.03 312.54 572.81 331.84
  C 532.87 362.41 485.48 385.72 435.98 395.60
  Q 417.19 399.35 398.05 399.60
  Q 385.43 399.62 372.98 397.59
  Q 372.23 397.48 371.69 397.22
  Q 371.46 395.67 368.50 394.63
  C 364.80 393.34 362.75 389.59 362.20 385.55
  C 361.39 379.60 360.74 373.67 360.65 367.66
  C 360.61 365.17 359.97 362.71 360.17 360.06
  Q 360.33 357.87 360.22 356.42
  C 359.64 349.28 359.20 339.80 360.87 333.24
  Q 361.24 331.79 361.21 330.99
  Q 361.19 330.50 361.36 330.04
  Q 361.65 329.27 361.87 328.00
  C 363.64 317.74 364.90 307.39 367.15 297.23
  Q 367.47 295.82 367.36 294.26
  Q 367.33 293.79 367.80 293.69
  C 369.77 293.31 371.91 294.01 373.40 294.21
  C 375.50 294.49 378.18 295.29 380.55 294.79
  Q 382.51 294.37 383.99 294.42
  C 387.05 294.51 389.57 294.13 393.11 293.87
  Q 395.10 293.72 396.97 292.90
  Q 397.43 292.69 397.92 292.75
  C 404.86 293.59 408.87 291.28 414.98 290.37
  Q 418.17 289.89 417.67 288.37
  C 463.89 275.84 508.93 249.31 540.45 212.75
  Q 541.71 213.26 542.23 212.03
  Q 542.41 211.60 542.85 211.43
  Q 543.56 211.14 544.00 210.50
  C 545.51 208.31 547.02 206.45 548.47 204.04
  C 549.91 201.66 551.84 199.49 553.13 197.19
  Q 556.02 192.05 558.99 186.97
  Q 559.26 186.53 559.77 186.57
  C 561.28 186.69 562.47 187.60 563.79 187.82
  C 566.01 188.19 568.87 188.28 570.83 189.45
  Q 571.25 189.70 571.73 189.73
  Q 573.70 189.86 575.54 190.68
  Q 576.01 190.89 576.50 190.75
  Q 578.58 190.16 580.26 191.75
  A 1.14 1.12 67.3 0 0 581.02 192.07
  Q 582.48 192.12 583.61 192.88
  Q 585.42 194.12 585.86 194.31
  Q 596.13 198.80 606.37 203.38
  Q 608.41 204.28 611.99 206.48
  Q 612.11 206.55 616.61 209.10
  Q 618.95 210.43 621.76 212.48
  Q 633.17 220.80 639.78 226.46
  Q 643.03 229.24 645.44 230.51
  Q 645.88 230.75 645.88 231.25
  L 645.88 231.75
  Q 645.88 232.37 646.50 232.37
  L 647.55 232.37
  Q 647.98 232.37 647.94 232.80
  L 647.55 237.31
  Q 647.52 237.70 647.24 237.98
  C 646.39 238.84 646.45 239.97 645.96 240.96
  Q 645.29 242.31 645.09 243.84
  Q 645.02 244.31 644.72 244.67
  L 642.60 247.14
  Q 642.27 247.52 642.16 248.00
  Q 641.76 249.70 640.71 251.03
  Q 640.42 251.40 640.35 251.87
  Q 640.11 253.53 638.95 254.78
  Q 638.69 255.06 638.75 255.37
  Q 638.82 255.67 638.66 255.95
  C 634.83 262.83 630.79 269.68 625.90 275.88
  Q 625.35 276.58 624.76 278.05
  C 624.15 279.61 623.03 280.16 622.19 281.45
  Q 621.90 281.90 621.52 282.38
  Q 621.21 282.76 621.12 283.24
  Q 620.85 284.74 619.47 285.45
  A 0.71 0.70 -21.1 0 0 619.11 286.25
  Q 619.27 286.90 618.67 287.30
  Q 618.28 287.56 618.31 288.02
  Q 618.32 288.24 618.51 288.42
  Z"
/>
<path fill="#060709" d="
  M 550.18 199.16
  L 540.45 212.75
  C 508.93 249.31 463.89 275.84 417.67 288.37
  Q 405.53 291.27 393.57 292.34
  L 385.93 291.29
  Q 385.88 291.29 385.88 291.32
  Q 385.87 291.33 385.87 291.34
  Q 385.87 291.37 385.89 291.37
  Q 386.22 291.42 386.50 291.24
  A 0.14 0.14 0.0 0 0 386.49 291.00
  Q 386.37 290.95 386.25 290.88
  Q 386.23 290.87 386.29 290.83
  Q 387.77 289.95 388.40 288.57
  C 389.25 286.73 389.66 286.20 390.99 285.00
  A 1.17 1.14 70.0 0 0 391.36 284.17
  Q 391.36 283.14 391.63 282.76
  C 394.36 278.95 395.77 274.68 398.46 270.82
  C 400.54 267.83 402.57 264.34 405.27 261.42
  C 406.12 260.50 406.76 259.10 407.69 258.09
  C 411.49 254.00 414.15 250.13 416.17 248.18
  Q 419.06 245.38 420.48 243.76
  Q 421.81 242.24 422.88 241.35
  Q 424.20 240.25 425.42 239.04
  C 425.90 238.57 426.08 237.83 426.76 237.37
  Q 427.33 236.98 427.47 236.85
  Q 432.66 232.15 442.62 225.11
  Q 448.19 221.18 452.43 218.99
  C 455.57 217.37 458.62 215.41 461.90 214.05
  Q 464.13 213.12 466.64 211.76
  C 468.73 210.62 471.35 209.66 473.11 208.88
  C 479.38 206.07 486.59 203.29 493.39 202.21
  C 498.29 201.44 502.44 199.54 507.57 199.36
  C 509.12 199.30 510.55 198.85 512.26 198.62
  Q 525.05 196.95 530.25 197.37
  C 535.67 197.80 541.51 198.29 546.91 197.53
  Q 550.13 197.07 550.18 199.16
  Z"
/>
<path fill="#1c1b1c" d="
  M 708.27 319.89
  C 702.24 336.84 691.13 354.34 680.04 368.52
  Q 680.44 367.44 680.32 366.68
  Q 680.29 366.49 680.46 366.39
  Q 680.61 366.31 680.75 366.24
  A 0.23 0.23 0.0 0 0 680.76 365.84
  Q 678.56 364.65 679.12 362.13
  Q 679.79 359.09 679.89 355.44
  C 679.97 352.15 679.05 348.35 678.78 344.75
  Q 678.77 344.54 678.57 344.46
  Q 678.40 344.39 678.40 344.26
  Q 678.37 335.51 677.17 326.87
  C 676.85 324.59 675.79 322.05 675.54 319.46
  A 1.71 1.67 23.4 0 0 675.18 318.58
  C 673.56 316.57 674.44 314.86 673.90 312.73
  Q 672.26 306.35 670.04 300.16
  C 668.30 295.35 665.63 290.40 663.33 285.52
  Q 663.11 285.07 663.09 284.57
  Q 663.07 284.06 662.82 283.61
  C 660.28 278.97 657.65 274.70 655.23 269.73
  Q 653.01 265.18 651.64 264.11
  C 650.70 263.37 649.79 263.01 649.16 261.93
  C 647.58 259.21 646.45 255.89 643.31 254.64
  A 0.52 0.51 -69.2 0 1 643.02 253.98
  Q 643.29 253.27 642.48 252.62
  C 648.11 240.63 652.33 229.27 654.03 216.08
  Q 654.96 215.34 654.44 213.76
  Q 654.38 213.58 654.45 213.40
  Q 654.64 212.91 654.62 213.46
  Q 654.42 219.40 655.36 222.36
  C 655.84 223.90 658.25 226.46 659.65 228.25
  Q 660.86 229.80 662.76 231.61
  Q 669.65 238.17 675.62 247.28
  C 677.28 249.81 679.36 251.83 680.90 254.34
  Q 687.64 265.33 693.26 276.94
  C 694.91 280.34 695.72 284.60 697.15 287.61
  Q 703.94 301.98 704.66 305.99
  Q 705.26 309.33 706.25 312.57
  Q 706.36 312.95 706.29 313.33
  Q 706.20 313.87 706.71 314.20
  Q 707.13 314.47 707.13 314.96
  Q 707.12 315.82 707.71 316.47
  Q 707.98 316.77 707.89 317.16
  Q 707.80 317.54 708.05 317.80
  Q 708.34 318.10 708.08 318.44
  Q 707.49 319.20 708.27 319.89
  Z"
/>
<path fill="#ffcf40" d="
  M 712.22 242.56
  C 715.32 247.45 717.31 253.06 719.93 257.66
  Q 725.05 266.67 728.48 276.48
  C 729.17 278.48 730.52 280.52 731.15 282.95
  C 732.10 286.63 733.58 290.11 734.39 293.74
  C 735.39 298.26 736.89 302.76 737.68 307.14
  C 738.73 313.02 740.09 318.99 740.60 324.84
  Q 741.81 338.66 742.58 352.39
  Q 738.80 380.20 726.03 405.02
  Q 723.58 409.79 716.57 421.50
  C 670.70 490.67 588.77 539.61 506.20 547.33
  C 486.00 548.52 467.04 548.03 447.26 543.45
  Q 437.51 541.20 424.18 535.50
  Q 421.70 534.29 419.25 532.51
  C 413.20 528.11 406.92 524.96 401.16 520.01
  C 397.73 517.06 394.00 514.37 390.33 511.16
  Q 375.51 498.20 368.85 489.65
  Q 363.28 482.48 357.56 475.43
  Q 353.90 470.92 346.24 456.63
  C 356.98 467.36 367.60 475.64 381.80 481.52
  Q 411.44 492.97 443.77 491.66
  L 459.31 491.05
  Q 460.64 491.96 458.43 491.85
  Q 457.19 491.79 458.06 492.67
  L 461.26 495.88
  Q 461.63 496.25 462.12 496.45
  Q 464.47 497.38 466.83 498.29
  C 467.95 498.72 469.35 498.85 470.59 499.43
  Q 472.29 500.21 473.30 500.45
  C 475.94 501.09 478.47 502.24 480.95 502.81
  Q 487.87 504.40 494.69 506.35
  C 497.72 507.22 500.96 507.59 504.09 508.17
  C 515.96 510.35 528.26 510.06 541.50 509.25
  Q 549.68 508.75 554.37 507.62
  C 554.96 507.48 555.56 507.75 556.01 507.65
  Q 565.88 505.42 575.75 503.14
  Q 577.57 502.72 581.20 501.32
  C 582.54 500.81 583.73 501.41 585.18 500.76
  C 588.16 499.42 591.43 498.41 594.18 497.03
  Q 605.35 491.43 616.09 485.04
  C 618.79 483.43 621.69 481.95 624.09 480.01
  C 636.59 469.91 647.46 459.49 657.41 447.18
  Q 662.15 441.34 666.56 434.03
  C 673.91 421.86 678.89 410.39 683.25 397.75
  Q 683.51 396.97 683.85 397.72
  Q 683.86 397.76 683.87 397.99
  Q 683.88 398.28 683.97 398.01
  Q 686.20 391.22 686.90 387.75
  C 688.05 382.03 688.15 375.30 689.14 368.96
  Q 689.57 366.16 689.81 363.33
  C 689.93 361.81 690.56 360.59 690.89 359.05
  Q 690.94 358.80 690.76 358.99
  Q 690.55 359.20 690.36 359.07
  Q 689.84 358.74 689.43 359.20
  Q 688.63 360.08 687.53 360.53
  Q 687.10 360.71 686.81 361.08
  Q 682.73 366.40 679.28 372.14
  Q 679.22 372.24 679.14 372.29
  Q 679.01 372.36 678.89 372.38
  Q 678.65 372.42 678.64 372.66
  Q 678.63 373.32 678.06 373.47
  Q 677.61 373.59 677.33 373.97
  Q 676.54 375.07 675.73 376.16
  C 674.59 377.70 672.72 378.11 672.22 380.48
  Q 672.11 380.96 671.77 381.30
  C 670.18 382.88 669.51 384.85 668.04 386.04
  Q 666.06 387.66 664.69 389.76
  Q 663.35 391.81 661.93 392.96
  Q 659.44 394.99 657.22 397.31
  C 654.50 400.15 651.77 402.21 648.99 404.71
  Q 647.89 405.70 645.97 405.44
  Q 664.69 388.36 680.04 368.52
  C 691.13 354.34 702.24 336.84 708.27 319.89
  Q 716.53 299.76 717.64 279.23
  Q 718.61 261.27 712.22 242.56
  Z"
/>
<path fill="#ffcf40" d="
  M 344.91 247.80
  C 342.51 258.20 340.76 266.26 345.42 275.81
  Q 350.27 284.37 359.47 288.13
  C 369.84 292.76 382.39 293.53 393.57 292.34
  Q 405.53 291.27 417.67 288.37
  Q 418.17 289.89 414.98 290.37
  C 408.87 291.28 404.86 293.59 397.92 292.75
  Q 397.43 292.69 396.97 292.90
  Q 395.10 293.72 393.11 293.87
  C 389.57 294.13 387.05 294.51 383.99 294.42
  Q 382.51 294.37 380.55 294.79
  C 378.18 295.29 375.50 294.49 373.40 294.21
  C 371.91 294.01 369.77 293.31 367.80 293.69
  Q 367.33 293.79 367.36 294.26
  Q 367.47 295.82 367.15 297.23
  C 364.90 307.39 363.64 317.74 361.87 328.00
  Q 361.65 329.27 361.36 330.04
  Q 361.19 330.50 361.21 330.99
  Q 361.24 331.79 360.87 333.24
  C 359.20 339.80 359.64 349.28 360.22 356.42
  Q 360.33 357.87 360.17 360.06
  C 359.97 362.71 360.61 365.17 360.65 367.66
  C 360.74 373.67 361.39 379.60 362.20 385.55
  C 362.75 389.59 364.80 393.34 368.50 394.63
  Q 371.46 395.67 371.69 397.22
  C 352.67 393.99 335.04 385.01 324.24 368.62
  Q 318.41 357.21 317.26 344.80
  C 317.34 329.23 319.89 316.85 322.67 302.74
  Q 326.59 282.91 335.70 264.95
  C 337.92 260.57 340.99 253.27 344.91 247.80
  Z"
/>
<path fill="#060709" d="
  M 642.48 252.62
  Q 643.29 253.27 643.02 253.98
  A 0.52 0.51 -69.2 0 0 643.31 254.64
  C 646.45 255.89 647.58 259.21 649.16 261.93
  C 649.79 263.01 650.70 263.37 651.64 264.11
  Q 653.01 265.18 655.23 269.73
  C 657.65 274.70 660.28 278.97 662.82 283.61
  Q 663.07 284.06 663.09 284.57
  Q 663.11 285.07 663.33 285.52
  C 665.63 290.40 668.30 295.35 670.04 300.16
  Q 672.26 306.35 673.90 312.73
  C 674.44 314.86 673.56 316.57 675.18 318.58
  A 1.71 1.67 23.4 0 1 675.54 319.46
  C 675.79 322.05 676.85 324.59 677.17 326.87
  Q 678.37 335.51 678.40 344.26
  Q 678.40 344.39 678.57 344.46
  Q 678.77 344.54 678.78 344.75
  C 679.05 348.35 679.97 352.15 679.89 355.44
  Q 679.79 359.09 679.12 362.13
  Q 678.56 364.65 680.76 365.84
  A 0.23 0.23 0.0 0 1 680.75 366.24
  Q 680.61 366.31 680.46 366.39
  Q 680.29 366.49 680.32 366.68
  Q 680.44 367.44 680.04 368.52
  Q 664.69 388.36 645.97 405.44
  C 598.89 447.78 539.58 478.48 476.82 488.90
  Q 475.49 488.48 474.98 487.59
  Q 474.73 487.16 474.29 486.94
  Q 472.62 486.11 470.72 486.14
  A 1.15 1.15 0.0 0 1 469.76 485.65
  C 469.39 485.13 469.29 484.83 468.70 484.49
  C 466.54 483.23 463.85 481.44 461.49 480.67
  Q 460.92 480.48 460.57 479.98
  Q 460.37 479.69 460.08 479.50
  L 450.35 473.14
  Q 449.94 472.87 449.45 472.87
  Q 448.99 472.87 448.68 472.56
  Q 447.38 471.24 445.98 470.49
  Q 443.70 469.26 443.12 468.77
  Q 440.61 466.65 438.38 464.24
  Q 438.08 463.92 437.63 463.90
  Q 437.29 463.89 437.12 463.63
  Q 436.28 462.28 435.17 461.64
  A 2.82 2.67 83.5 0 1 434.48 461.06
  C 433.57 459.98 433.14 459.28 431.84 458.43
  Q 430.34 457.46 429.27 456.00
  Q 429.18 455.87 429.02 455.87
  Q 428.85 455.87 428.68 455.87
  Q 428.43 455.86 428.27 455.67
  L 425.63 452.40
  A 0.82 0.82 0.0 0 0 425.09 452.10
  Q 424.57 452.05 424.30 451.64
  C 422.68 449.13 419.98 447.68 418.62 444.94
  Q 418.08 443.85 417.31 442.94
  Q 415.89 441.28 415.32 440.11
  Q 412.47 434.17 407.78 429.54
  C 406.58 428.36 406.23 427.23 405.48 425.81
  C 405.01 424.95 404.01 424.46 403.88 423.16
  Q 403.83 422.70 403.58 422.32
  Q 401.49 419.11 399.58 415.81
  A 0.25 0.15 31.7 0 1 399.54 415.73
  Q 398.37 413.20 397.11 410.73
  C 396.59 409.70 396.76 408.64 396.06 407.62
  C 394.59 405.48 393.78 403.58 392.85 401.16
  Q 392.67 400.68 392.18 400.48
  L 391.83 400.33
  Q 390.84 399.93 391.91 399.88
  L 398.05 399.60
  Q 417.19 399.35 435.98 395.60
  C 485.48 385.72 532.87 362.41 572.81 331.84
  Q 598.03 312.54 618.51 288.42
  Q 632.47 271.73 642.48 252.62
  Z"
/>
<path fill="#403f3d" d="
  M 317.26 344.80
  Q 318.41 357.21 324.24 368.62
  Q 326.99 375.11 332.56 380.39
  Q 334.64 382.37 335.33 384.07
  Q 336.23 386.26 336.46 388.72
  A 1.69 1.61 -68.2 0 0 336.80 389.57
  Q 337.33 390.23 337.55 391.01
  Q 341.31 404.27 345.76 417.32
  Q 345.88 417.69 346.39 418.59
  C 347.01 419.70 346.89 421.05 347.29 421.99
  Q 354.21 438.37 364.01 453.19
  C 365.78 455.86 367.69 459.16 369.71 462.03
  Q 369.74 462.06 371.33 463.72
  Q 372.17 464.59 372.84 466.15
  Q 373.48 467.65 376.10 470.77
  C 377.71 472.68 378.92 475.10 380.65 477.11
  Q 381.66 478.28 381.80 481.52
  C 367.60 475.64 356.98 467.36 346.24 456.63
  Q 342.24 450.69 340.42 446.82
  C 335.05 435.38 329.24 424.76 326.21 412.37
  C 323.63 401.82 321.73 394.91 320.06 386.14
  Q 319.76 378.04 319.35 376.00
  C 318.61 372.31 318.26 369.17 317.22 365.98
  Q 316.47 355.42 317.26 344.80
  Z"
/>
<path fill="#403f3d" d="
  M 742.58 352.39
  Q 743.04 363.12 742.14 369.00
  C 740.10 382.32 739.14 395.41 734.35 409.45
  C 733.01 413.39 732.04 417.59 730.34 421.38
  C 729.56 423.12 728.69 424.77 728.11 426.60
  C 724.06 439.37 717.85 450.29 711.43 461.92
  C 708.11 467.94 703.38 472.53 699.93 478.34
  C 696.55 484.04 691.92 488.13 687.75 493.01
  C 680.41 501.58 672.24 509.70 663.43 516.37
  C 657.92 520.53 652.77 524.88 647.00 528.48
  C 637.33 534.51 628.89 539.68 617.00 544.92
  C 582.61 560.08 546.64 565.99 509.02 562.29
  C 487.07 560.13 469.28 555.63 448.74 547.57
  C 446.31 546.61 443.45 544.88 440.60 543.76
  Q 432.17 540.42 424.18 535.50
  Q 437.51 541.20 447.26 543.45
  C 467.04 548.03 486.00 548.52 506.20 547.33
  C 509.29 550.19 512.02 549.16 515.81 549.06
  Q 516.28 549.04 516.71 548.82
  Q 518.25 547.99 519.96 548.36
  Q 520.46 548.47 520.94 548.29
  Q 522.18 547.84 523.33 548.46
  Q 523.74 548.68 524.20 548.72
  Q 529.60 549.16 534.89 548.20
  Q 539.12 547.43 541.19 547.38
  Q 544.39 547.31 547.58 547.44
  Q 551.03 547.59 554.36 546.94
  Q 558.75 546.08 563.20 545.57
  C 565.18 545.34 567.27 544.67 569.31 544.36
  C 572.88 543.83 575.36 542.93 578.49 541.85
  C 580.18 541.26 581.96 541.27 583.73 540.86
  C 584.79 540.62 585.80 539.73 587.25 539.89
  Q 587.55 539.92 587.66 539.64
  Q 587.74 539.42 587.98 539.34
  Q 593.98 537.40 599.98 535.46
  C 602.33 534.70 604.47 533.54 606.70 532.47
  Q 606.88 532.38 607.08 532.38
  L 607.55 532.38
  Q 607.99 532.38 608.37 532.16
  Q 610.64 530.77 613.12 529.86
  Q 613.51 529.71 613.88 529.82
  A 0.94 0.89 -46.8 0 0 614.52 529.78
  L 618.31 528.13
  Q 618.58 528.01 618.75 527.77
  Q 618.85 527.63 619.02 527.53
  Q 620.88 526.52 622.69 525.46
  C 623.39 525.05 624.28 525.09 625.00 524.42
  C 626.69 522.84 628.91 521.47 630.85 520.14
  Q 633.14 518.57 635.56 517.19
  C 640.32 514.48 644.73 511.30 649.25 508.25
  Q 654.55 504.67 667.19 492.93
  C 671.60 488.84 674.90 483.88 679.27 479.76
  Q 682.40 476.82 685.03 473.41
  Q 691.63 464.84 697.53 455.79
  C 699.85 452.25 701.80 447.23 704.77 443.26
  Q 704.87 443.12 704.73 443.02
  L 704.73 443.02
  Q 704.56 442.89 704.49 442.99
  L 702.86 445.46
  Q 702.67 445.76 702.51 445.44
  L 702.09 444.59
  A 0.50 0.49 46.9 0 1 702.10 444.14
  Q 703.11 442.20 704.50 440.50
  Q 706.21 438.40 707.16 437.03
  Q 708.59 434.96 710.34 433.13
  Q 710.39 433.07 710.39 432.99
  Q 710.39 432.85 710.39 432.71
  Q 710.40 432.44 710.58 432.24
  Q 712.22 430.48 713.11 428.32
  Q 713.89 426.41 714.87 424.98
  Q 716.05 423.24 716.57 421.50
  Q 723.58 409.79 726.03 405.02
  Q 738.80 380.20 742.58 352.39
  Z"
/>
<path fill="#ffc809" d="
  M 459.31 491.05
  L 476.82 488.90
  C 539.58 478.48 598.89 447.78 645.97 405.44
  Q 647.89 405.70 648.99 404.71
  C 651.77 402.21 654.50 400.15 657.22 397.31
  Q 659.44 394.99 661.93 392.96
  Q 663.35 391.81 664.69 389.76
  Q 666.06 387.66 668.04 386.04
  C 669.51 384.85 670.18 382.88 671.77 381.30
  Q 672.11 380.96 672.22 380.48
  C 672.72 378.11 674.59 377.70 675.73 376.16
  Q 676.54 375.07 677.33 373.97
  Q 677.61 373.59 678.06 373.47
  Q 678.63 373.32 678.64 372.66
  Q 678.65 372.42 678.89 372.38
  Q 679.01 372.36 679.14 372.29
  Q 679.22 372.24 679.28 372.14
  Q 682.73 366.40 686.81 361.08
  Q 687.10 360.71 687.53 360.53
  Q 688.63 360.08 689.43 359.20
  Q 689.84 358.74 690.36 359.07
  Q 690.55 359.20 690.76 358.99
  Q 690.94 358.80 690.89 359.05
  C 690.56 360.59 689.93 361.81 689.81 363.33
  Q 689.57 366.16 689.14 368.96
  C 688.15 375.30 688.05 382.03 686.90 387.75
  Q 686.20 391.22 683.97 398.01
  Q 683.88 398.28 683.87 397.99
  Q 683.86 397.76 683.85 397.72
  Q 683.51 396.97 683.25 397.75
  C 678.89 410.39 673.91 421.86 666.56 434.03
  Q 662.15 441.34 657.41 447.18
  C 647.46 459.49 636.59 469.91 624.09 480.01
  C 621.69 481.95 618.79 483.43 616.09 485.04
  Q 605.35 491.43 594.18 497.03
  C 591.43 498.41 588.16 499.42 585.18 500.76
  C 583.73 501.41 582.54 500.81 581.20 501.32
  Q 577.57 502.72 575.75 503.14
  Q 565.88 505.42 556.01 507.65
  C 555.56 507.75 554.96 507.48 554.37 507.62
  Q 549.68 508.75 541.50 509.25
  C 528.26 510.06 515.96 510.35 504.09 508.17
  C 500.96 507.59 497.72 507.22 494.69 506.35
  Q 487.87 504.40 480.95 502.81
  C 478.47 502.24 475.94 501.09 473.30 500.45
  Q 472.29 500.21 470.59 499.43
  C 469.35 498.85 467.95 498.72 466.83 498.29
  Q 464.47 497.38 462.12 496.45
  Q 461.63 496.25 461.26 495.88
  L 458.06 492.67
  Q 457.19 491.79 458.43 491.85
  Q 460.64 491.96 459.31 491.05
  Z"
/>
<path fill="#060709" d="
  M 317.22 365.98
  C 318.26 369.17 318.61 372.31 319.35 376.00
  Q 319.76 378.04 320.06 386.14
  Q 317.93 376.09 317.22 365.98
  Z"
/>
<path fill="#2e2d2d" d="
  M 324.24 368.62
  C 335.04 385.01 352.67 393.99 371.69 397.22
  Q 372.23 397.48 372.98 397.59
  Q 371.81 397.37 372.69 399.13
  Q 373.41 400.57 373.57 402.19
  C 373.66 403.12 374.07 403.54 374.71 404.10
  Q 375.01 404.37 375.11 404.75
  Q 375.35 405.65 376.01 406.18
  Q 376.39 406.48 376.55 406.94
  Q 376.92 408.01 377.37 409.05
  C 377.85 410.13 378.05 411.81 378.90 413.02
  C 380.11 414.73 381.62 417.97 382.45 419.84
  Q 385.19 426.02 387.90 430.11
  Q 389.58 432.65 390.73 434.65
  C 393.34 439.18 396.40 443.25 399.11 447.67
  Q 399.77 448.74 400.75 450.01
  Q 401.61 451.14 402.41 452.33
  C 403.27 453.61 404.39 454.36 405.37 455.56
  Q 406.81 457.33 407.55 458.03
  C 411.20 461.53 414.23 465.25 418.06 468.82
  Q 420.47 471.07 422.59 473.60
  Q 422.73 473.77 422.93 473.85
  C 424.22 474.35 425.48 476.09 426.60 477.01
  C 428.18 478.30 429.66 480.31 431.58 481.52
  Q 434.06 483.08 434.08 483.09
  Q 436.37 484.74 438.71 486.34
  Q 439.14 486.64 439.40 487.10
  Q 440.36 488.84 442.53 488.92
  Q 443.54 488.95 443.38 489.95
  Q 443.32 490.27 442.95 490.30
  Q 442.64 490.33 442.84 490.57
  L 443.77 491.66
  Q 411.44 492.97 381.80 481.52
  Q 381.66 478.28 380.65 477.11
  C 378.92 475.10 377.71 472.68 376.10 470.77
  Q 373.48 467.65 372.84 466.15
  Q 372.17 464.59 371.33 463.72
  Q 369.74 462.06 369.71 462.03
  C 367.69 459.16 365.78 455.86 364.01 453.19
  Q 354.21 438.37 347.29 421.99
  C 346.89 421.05 347.01 419.70 346.39 418.59
  Q 345.88 417.69 345.76 417.32
  Q 341.31 404.27 337.55 391.01
  Q 337.33 390.23 336.80 389.57
  A 1.69 1.61 -68.2 0 1 336.46 388.72
  Q 336.23 386.26 335.33 384.07
  Q 334.64 382.37 332.56 380.39
  Q 326.99 375.11 324.24 368.62
  Z"
/>
<path fill="#1c1b1c" d="
  M 372.98 397.59
  Q 385.43 399.62 398.05 399.60
  L 391.91 399.88
  Q 390.84 399.93 391.83 400.33
  L 392.18 400.48
  Q 392.67 400.68 392.85 401.16
  C 393.78 403.58 394.59 405.48 396.06 407.62
  C 396.76 408.64 396.59 409.70 397.11 410.73
  Q 398.37 413.20 399.54 415.73
  A 0.25 0.15 31.7 0 0 399.58 415.81
  Q 401.49 419.11 403.58 422.32
  Q 403.83 422.70 403.88 423.16
  C 404.01 424.46 405.01 424.95 405.48 425.81
  C 406.23 427.23 406.58 428.36 407.78 429.54
  Q 412.47 434.17 415.32 440.11
  Q 415.89 441.28 417.31 442.94
  Q 418.08 443.85 418.62 444.94
  C 419.98 447.68 422.68 449.13 424.30 451.64
  Q 424.57 452.05 425.09 452.10
  A 0.82 0.82 0.0 0 1 425.63 452.40
  L 428.27 455.67
  Q 428.43 455.86 428.68 455.87
  Q 428.85 455.87 429.02 455.87
  Q 429.18 455.87 429.27 456.00
  Q 430.34 457.46 431.84 458.43
  C 433.14 459.28 433.57 459.98 434.48 461.06
  A 2.82 2.67 83.5 0 0 435.17 461.64
  Q 436.28 462.28 437.12 463.63
  Q 437.29 463.89 437.63 463.90
  Q 438.08 463.92 438.38 464.24
  Q 440.61 466.65 443.12 468.77
  Q 443.70 469.26 445.98 470.49
  Q 447.38 471.24 448.68 472.56
  Q 448.99 472.87 449.45 472.87
  Q 449.94 472.87 450.35 473.14
  L 460.08 479.50
  Q 460.37 479.69 460.57 479.98
  Q 460.92 480.48 461.49 480.67
  C 463.85 481.44 466.54 483.23 468.70 484.49
  C 469.29 484.83 469.39 485.13 469.76 485.65
  A 1.15 1.15 0.0 0 0 470.72 486.14
  Q 472.62 486.11 474.29 486.94
  Q 474.73 487.16 474.98 487.59
  Q 475.49 488.48 476.82 488.90
  L 459.31 491.05
  L 443.77 491.66
  L 442.84 490.57
  Q 442.64 490.33 442.95 490.30
  Q 443.32 490.27 443.38 489.95
  Q 443.54 488.95 442.53 488.92
  Q 440.36 488.84 439.40 487.10
  Q 439.14 486.64 438.71 486.34
  Q 436.37 484.74 434.08 483.09
  Q 434.06 483.08 431.58 481.52
  C 429.66 480.31 428.18 478.30 426.60 477.01
  C 425.48 476.09 424.22 474.35 422.93 473.85
  Q 422.73 473.77 422.59 473.60
  Q 420.47 471.07 418.06 468.82
  C 414.23 465.25 411.20 461.53 407.55 458.03
  Q 406.81 457.33 405.37 455.56
  C 404.39 454.36 403.27 453.61 402.41 452.33
  Q 401.61 451.14 400.75 450.01
  Q 399.77 448.74 399.11 447.67
  C 396.40 443.25 393.34 439.18 390.73 434.65
  Q 389.58 432.65 387.90 430.11
  Q 385.19 426.02 382.45 419.84
  C 381.62 417.97 380.11 414.73 378.90 413.02
  C 378.05 411.81 377.85 410.13 377.37 409.05
  Q 376.92 408.01 376.55 406.94
  Q 376.39 406.48 376.01 406.18
  Q 375.35 405.65 375.11 404.75
  Q 375.01 404.37 374.71 404.10
  C 374.07 403.54 373.66 403.12 373.57 402.19
  Q 373.41 400.57 372.69 399.13
  Q 371.81 397.37 372.98 397.59
  Z"
/>
<path fill="#2e2d2d" d="
  M 716.57 421.50
  Q 716.05 423.24 714.87 424.98
  Q 713.89 426.41 713.11 428.32
  Q 712.22 430.48 710.58 432.24
  Q 710.40 432.44 710.39 432.71
  Q 710.39 432.85 710.39 432.99
  Q 710.39 433.07 710.34 433.13
  Q 708.59 434.96 707.16 437.03
  Q 706.21 438.40 704.50 440.50
  Q 703.11 442.20 702.10 444.14
  A 0.50 0.49 46.9 0 0 702.09 444.59
  L 702.51 445.44
  Q 702.67 445.76 702.86 445.46
  L 704.49 442.99
  Q 704.56 442.89 704.73 443.02
  L 704.73 443.02
  Q 704.87 443.12 704.77 443.26
  C 701.80 447.23 699.85 452.25 697.53 455.79
  Q 691.63 464.84 685.03 473.41
  Q 682.40 476.82 679.27 479.76
  C 674.90 483.88 671.60 488.84 667.19 492.93
  Q 654.55 504.67 649.25 508.25
  C 644.73 511.30 640.32 514.48 635.56 517.19
  Q 633.14 518.57 630.85 520.14
  C 628.91 521.47 626.69 522.84 625.00 524.42
  C 624.28 525.09 623.39 525.05 622.69 525.46
  Q 620.88 526.52 619.02 527.53
  Q 618.85 527.63 618.75 527.77
  Q 618.58 528.01 618.31 528.13
  L 614.52 529.78
  A 0.94 0.89 -46.8 0 1 613.88 529.82
  Q 613.51 529.71 613.12 529.86
  Q 610.64 530.77 608.37 532.16
  Q 607.99 532.38 607.55 532.38
  L 607.08 532.38
  Q 606.88 532.38 606.70 532.47
  C 604.47 533.54 602.33 534.70 599.98 535.46
  Q 593.98 537.40 587.98 539.34
  Q 587.74 539.42 587.66 539.64
  Q 587.55 539.92 587.25 539.89
  C 585.80 539.73 584.79 540.62 583.73 540.86
  C 581.96 541.27 580.18 541.26 578.49 541.85
  C 575.36 542.93 572.88 543.83 569.31 544.36
  C 567.27 544.67 565.18 545.34 563.20 545.57
  Q 558.75 546.08 554.36 546.94
  Q 551.03 547.59 547.58 547.44
  Q 544.39 547.31 541.19 547.38
  Q 539.12 547.43 534.89 548.20
  Q 529.60 549.16 524.20 548.72
  Q 523.74 548.68 523.33 548.46
  Q 522.18 547.84 520.94 548.29
  Q 520.46 548.47 519.96 548.36
  Q 518.25 547.99 516.71 548.82
  Q 516.28 549.04 515.81 549.06
  C 512.02 549.16 509.29 550.19 506.20 547.33
  C 588.77 539.61 670.70 490.67 716.57 421.50
  Z"
/>
</svg>
