<?xml version="1.0" encoding="UTF-8" standalone="no"?>
<!DOCTYPE svg PUBLIC "-//W3C//DTD SVG 1.1//EN" "http://www.w3.org/Graphics/SVG/1.1/DTD/svg11.dtd">
<svg xmlns="http://www.w3.org/2000/svg" version="1.1" viewBox="0.00 0.00 100.00 100.00">
<g stroke-width="2.00" fill="none" stroke-linecap="butt">
<path stroke="#80d3b2" vector-effect="non-scaling-stroke" d="
  M 42.96 51.70
  C 44.18 49.29 47.46 50.04 49.66 49.93
  Q 50.10 49.91 50.10 49.47
  L 50.11 16.34
  A 0.39 0.39 0.0 0 0 49.71 15.95
  Q 33.65 16.52 23.61 28.85
  C 8.13 47.88 17.73 77.74 42.15 83.00
  Q 42.75 83.12 42.75 82.51
  L 42.75 52.58
  A 2.01 1.92 -32.9 0 1 42.96 51.70"
/>
<path stroke="#80d3b2" vector-effect="non-scaling-stroke" d="
  M 53.90 52.57
  C 52.70 54.68 49.20 54.11 47.29 54.05
  A 0.43 0.43 0.0 0 0 46.85 54.48
  L 46.83 83.49
  A 0.47 0.47 0.0 0 0 47.28 83.96
  C 91.33 85.60 97.55 23.62 54.73 16.29
  Q 54.22 16.20 54.22 16.73
  L 54.22 51.37
  A 2.44 2.40 -30.5 0 1 53.90 52.57"
/>
<path stroke="#80d3b2" vector-effect="non-scaling-stroke" d="
  M 47.72 39.79
  A 4.24 4.24 0.0 0 0 43.48 35.55
  A 4.24 4.24 0.0 0 0 39.24 39.79
  A 4.24 4.24 0.0 0 0 43.48 44.03
  A 4.24 4.24 0.0 0 0 47.72 39.79"
/>
<path stroke="#80d3b2" vector-effect="non-scaling-stroke" d="
  M 57.74 64.30
  A 4.24 4.24 0.0 0 0 53.50 60.06
  A 4.24 4.24 0.0 0 0 49.26 64.30
  A 4.24 4.24 0.0 0 0 53.50 68.54
  A 4.24 4.24 0.0 0 0 57.74 64.30"
/>
<path stroke="#80d3b2" vector-effect="non-scaling-stroke" d="
  M 67.71 64.30
  A 4.24 4.24 0.0 0 0 63.47 60.06
  A 4.24 4.24 0.0 0 0 59.23 64.30
  A 4.24 4.24 0.0 0 0 63.47 68.54
  A 4.24 4.24 0.0 0 0 67.71 64.30"
/>
<path stroke="#80d3b2" vector-effect="non-scaling-stroke" d="
  M 77.67 64.30
  A 4.24 4.24 0.0 0 0 73.43 60.06
  A 4.24 4.24 0.0 0 0 69.19 64.30
  A 4.24 4.24 0.0 0 0 73.43 68.54
  A 4.24 4.24 0.0 0 0 77.67 64.30"
/>
</g>
<path fill="#00a664" d="
  M 47.64 0.00
  L 52.49 0.00
  C 78.64 2.10 98.32 21.43 100.00 47.65
  L 100.00 52.49
  C 97.91 78.63 78.57 98.32 52.35 100.00
  L 47.51 100.00
  C 21.36 97.91 1.68 78.57 0.00 52.35
  L 0.00 47.53
  C 1.76 21.31 21.46 2.03 47.64 0.00
  Z
  M 42.96 51.70
  C 44.18 49.29 47.46 50.04 49.66 49.93
  Q 50.10 49.91 50.10 49.47
  L 50.11 16.34
  A 0.39 0.39 0.0 0 0 49.71 15.95
  Q 33.65 16.52 23.61 28.85
  C 8.13 47.88 17.73 77.74 42.15 83.00
  Q 42.75 83.12 42.75 82.51
  L 42.75 52.58
  A 2.01 1.92 -32.9 0 1 42.96 51.70
  Z
  M 53.90 52.57
  C 52.70 54.68 49.20 54.11 47.29 54.05
  A 0.43 0.43 0.0 0 0 46.85 54.48
  L 46.83 83.49
  A 0.47 0.47 0.0 0 0 47.28 83.96
  C 91.33 85.60 97.55 23.62 54.73 16.29
  Q 54.22 16.20 54.22 16.73
  L 54.22 51.37
  A 2.44 2.40 -30.5 0 1 53.90 52.57
  Z"
/>
<path fill="#ffffff" d="
  M 42.96 51.70
  A 2.01 1.92 -32.9 0 0 42.75 52.58
  L 42.75 82.51
  Q 42.75 83.12 42.15 83.00
  C 17.73 77.74 8.13 47.88 23.61 28.85
  Q 33.65 16.52 49.71 15.95
  A 0.39 0.39 0.0 0 1 50.11 16.34
  L 50.10 49.47
  Q 50.10 49.91 49.66 49.93
  C 47.46 50.04 44.18 49.29 42.96 51.70
  Z
  M 47.72 39.79
  A 4.24 4.24 0.0 0 0 43.48 35.55
  A 4.24 4.24 0.0 0 0 39.24 39.79
  A 4.24 4.24 0.0 0 0 43.48 44.03
  A 4.24 4.24 0.0 0 0 47.72 39.79
  Z"
/>
<path fill="#ffffff" d="
  M 53.90 52.57
  A 2.44 2.40 -30.5 0 0 54.22 51.37
  L 54.22 16.73
  Q 54.22 16.20 54.73 16.29
  C 97.55 23.62 91.33 85.60 47.28 83.96
  A 0.47 0.47 0.0 0 1 46.83 83.49
  L 46.85 54.48
  A 0.43 0.43 0.0 0 1 47.29 54.05
  C 49.20 54.11 52.70 54.68 53.90 52.57
  Z
  M 57.74 64.30
  A 4.24 4.24 0.0 0 0 53.50 60.06
  A 4.24 4.24 0.0 0 0 49.26 64.30
  A 4.24 4.24 0.0 0 0 53.50 68.54
  A 4.24 4.24 0.0 0 0 57.74 64.30
  Z
  M 67.71 64.30
  A 4.24 4.24 0.0 0 0 63.47 60.06
  A 4.24 4.24 0.0 0 0 59.23 64.30
  A 4.24 4.24 0.0 0 0 63.47 68.54
  A 4.24 4.24 0.0 0 0 67.71 64.30
  Z
  M 77.67 64.30
  A 4.24 4.24 0.0 0 0 73.43 60.06
  A 4.24 4.24 0.0 0 0 69.19 64.30
  A 4.24 4.24 0.0 0 0 73.43 68.54
  A 4.24 4.24 0.0 0 0 77.67 64.30
  Z"
/>
<circle fill="#00a664" cx="43.48" cy="39.79" r="4.24"/>
<circle fill="#00a664" cx="53.50" cy="64.30" r="4.24"/>
<circle fill="#00a664" cx="63.47" cy="64.30" r="4.24"/>
<circle fill="#00a664" cx="73.43" cy="64.30" r="4.24"/>
</svg>
