<?xml version="1.0" encoding="UTF-8" standalone="no"?>
<!DOCTYPE svg PUBLIC "-//W3C//DTD SVG 1.1//EN" "http://www.w3.org/Graphics/SVG/1.1/DTD/svg11.dtd">
<svg xmlns="http://www.w3.org/2000/svg" version="1.1" viewBox="0.00 0.00 100.00 100.00">
<path stroke="#ff8080" stroke-width="2.00" fill="none" stroke-linecap="butt" vector-effect="non-scaling-stroke" d="
  M 33.17 40.44
  Q 29.52 48.97 30.13 58.24
  C 31.65 81.38 62.70 84.64 69.24 63.47
  C 75.53 43.11 50.60 -0.27 33.17 40.44"
/>
<path fill="#ff0000" d="
  M 47.64 0.00
  L 52.48 0.00
  C 78.64 2.10 98.31 21.43 100.00 47.65
  L 100.00 52.48
  C 97.90 78.63 78.56 98.31 52.35 100.00
  L 47.52 100.00
  C 21.37 97.90 1.69 78.56 0.00 52.35
  L 0.00 47.53
  C 1.79 21.38 21.55 1.89 47.64 0.00
  Z
  M 33.17 40.44
  Q 29.52 48.97 30.13 58.24
  C 31.65 81.38 62.70 84.64 69.24 63.47
  C 75.53 43.11 50.60 -0.27 33.17 40.44
  Z"
/>
<path fill="#ffffff" d="
  M 33.17 40.44
  C 50.60 -0.27 75.53 43.11 69.24 63.47
  C 62.70 84.64 31.65 81.38 30.13 58.24
  Q 29.52 48.97 33.17 40.44
  Z"
/>
</svg>
