<?xml version="1.0" encoding="UTF-8" standalone="no"?>
<!DOCTYPE svg PUBLIC "-//W3C//DTD SVG 1.1//EN" "http://www.w3.org/Graphics/SVG/1.1/DTD/svg11.dtd">
<svg xmlns="http://www.w3.org/2000/svg" version="1.1" viewBox="0.00 0.00 1024.00 1024.00">
<g stroke-width="2.00" fill="none" stroke-linecap="butt">
<path stroke="#ff8099" vector-effect="non-scaling-stroke" d="
  M 335.62 147.04
  A 0.30 0.30 0.0 0 1 336.19 147.18
  L 336.19 314.70
  A 0.30 0.30 0.0 0 0 336.49 315.00
  L 393.45 315.00
  A 0.30 0.30 0.0 0 0 393.75 314.70
  L 393.75 79.05
  A 0.30 0.30 0.0 0 0 393.45 78.75
  L 311.86 78.74
  A 0.30 0.30 0.0 0 0 311.59 78.91
  L 236.53 234.45
  A 0.30 0.30 0.0 0 1 235.99 234.45
  L 161.14 78.91
  A 0.30 0.30 0.0 0 0 160.87 78.74
  L 79.05 78.75
  A 0.30 0.30 0.0 0 0 78.75 79.05
  L 78.75 314.70
  A 0.30 0.30 0.0 0 0 79.05 315.00
  L 136.23 315.00
  A 0.30 0.30 0.0 0 0 136.53 314.70
  L 136.53 147.15
  A 0.30 0.30 0.0 0 1 137.10 147.01
  L 209.96 288.61
  A 0.30 0.30 0.0 0 0 210.22 288.77
  L 262.51 288.77
  A 0.30 0.30 0.0 0 0 262.77 288.61
  L 335.62 147.04"
/>
<path stroke="#ff8099" vector-effect="non-scaling-stroke" d="
  M 842.40 315.00
  A 0.40 0.40 0.0 0 0 842.80 314.60
  L 842.80 126.29
  A 0.40 0.40 0.0 0 1 843.20 125.89
  L 945.29 125.88
  A 0.40 0.40 0.0 0 0 945.69 125.48
  L 945.69 79.15
  A 0.40 0.40 0.0 0 0 945.29 78.75
  L 682.59 78.75
  A 0.40 0.40 0.0 0 0 682.19 79.15
  L 682.19 125.47
  A 0.40 0.40 0.0 0 0 682.59 125.87
  L 784.83 125.89
  A 0.40 0.40 0.0 0 1 785.23 126.29
  L 785.23 314.60
  A 0.40 0.40 0.0 0 0 785.63 315.00
  L 842.40 315.00"
/>
<path stroke="#ff8099" vector-effect="non-scaling-stroke" d="
  M 799.00 903.81
  C 763.28 900.69 740.85 882.49 740.09 844.50
  Q 739.80 830.44 740.21 809.50
  Q 740.50 794.68 744.77 783.99
  C 757.51 752.05 793.28 749.02 822.50 749.47
  Q 839.67 749.73 853.74 752.78
  C 869.50 756.19 882.21 765.56 886.59 781.54
  Q 887.33 784.22 888.04 786.98
  Q 888.17 787.52 888.73 787.52
  L 945.01 787.52
  Q 945.57 787.52 945.53 786.95
  Q 944.34 772.84 939.45 760.51
  C 925.88 726.27 894.19 711.74 859.75 706.81
  C 824.36 701.74 784.12 701.77 750.27 713.28
  Q 707.91 727.68 691.87 768.24
  C 682.88 790.96 681.34 817.96 682.86 842.08
  C 683.82 857.31 686.69 873.54 692.44 887.41
  C 709.79 929.20 747.46 945.24 790.50 949.22
  Q 828.96 952.77 867.00 946.24
  C 909.73 938.90 942.07 912.79 945.49 867.27
  Q 945.52 866.75 945.00 866.75
  L 888.29 866.74
  A 0.37 0.36 -85.4 0 0 887.93 867.05
  C 884.21 890.30 866.15 900.16 844.50 902.77
  Q 820.37 905.67 799.00 903.81"
/>
</g>
<path fill="#ff0032" d="
  M 0.00 0.00
  L 1024.00 0.00
  L 1024.00 1024.00
  L 0.00 1024.00
  L 0.00 0.00
  Z
  M 335.62 147.04
  A 0.30 0.30 0.0 0 1 336.19 147.18
  L 336.19 314.70
  A 0.30 0.30 0.0 0 0 336.49 315.00
  L 393.45 315.00
  A 0.30 0.30 0.0 0 0 393.75 314.70
  L 393.75 79.05
  A 0.30 0.30 0.0 0 0 393.45 78.75
  L 311.86 78.74
  A 0.30 0.30 0.0 0 0 311.59 78.91
  L 236.53 234.45
  A 0.30 0.30 0.0 0 1 235.99 234.45
  L 161.14 78.91
  A 0.30 0.30 0.0 0 0 160.87 78.74
  L 79.05 78.75
  A 0.30 0.30 0.0 0 0 78.75 79.05
  L 78.75 314.70
  A 0.30 0.30 0.0 0 0 79.05 315.00
  L 136.23 315.00
  A 0.30 0.30 0.0 0 0 136.53 314.70
  L 136.53 147.15
  A 0.30 0.30 0.0 0 1 137.10 147.01
  L 209.96 288.61
  A 0.30 0.30 0.0 0 0 210.22 288.77
  L 262.51 288.77
  A 0.30 0.30 0.0 0 0 262.77 288.61
  L 335.62 147.04
  Z
  M 842.40 315.00
  A 0.40 0.40 0.0 0 0 842.80 314.60
  L 842.80 126.29
  A 0.40 0.40 0.0 0 1 843.20 125.89
  L 945.29 125.88
  A 0.40 0.40 0.0 0 0 945.69 125.48
  L 945.69 79.15
  A 0.40 0.40 0.0 0 0 945.29 78.75
  L 682.59 78.75
  A 0.40 0.40 0.0 0 0 682.19 79.15
  L 682.19 125.47
  A 0.40 0.40 0.0 0 0 682.59 125.87
  L 784.83 125.89
  A 0.40 0.40 0.0 0 1 785.23 126.29
  L 785.23 314.60
  A 0.40 0.40 0.0 0 0 785.63 315.00
  L 842.40 315.00
  Z
  M 799.00 903.81
  C 763.28 900.69 740.85 882.49 740.09 844.50
  Q 739.80 830.44 740.21 809.50
  Q 740.50 794.68 744.77 783.99
  C 757.51 752.05 793.28 749.02 822.50 749.47
  Q 839.67 749.73 853.74 752.78
  C 869.50 756.19 882.21 765.56 886.59 781.54
  Q 887.33 784.22 888.04 786.98
  Q 888.17 787.52 888.73 787.52
  L 945.01 787.52
  Q 945.57 787.52 945.53 786.95
  Q 944.34 772.84 939.45 760.51
  C 925.88 726.27 894.19 711.74 859.75 706.81
  C 824.36 701.74 784.12 701.77 750.27 713.28
  Q 707.91 727.68 691.87 768.24
  C 682.88 790.96 681.34 817.96 682.86 842.08
  C 683.82 857.31 686.69 873.54 692.44 887.41
  C 709.79 929.20 747.46 945.24 790.50 949.22
  Q 828.96 952.77 867.00 946.24
  C 909.73 938.90 942.07 912.79 945.49 867.27
  Q 945.52 866.75 945.00 866.75
  L 888.29 866.74
  A 0.37 0.36 -85.4 0 0 887.93 867.05
  C 884.21 890.30 866.15 900.16 844.50 902.77
  Q 820.37 905.67 799.00 903.81
  Z"
/>
<path fill="#ffffff" d="
  M 335.62 147.04
  L 262.77 288.61
  A 0.30 0.30 0.0 0 1 262.51 288.77
  L 210.22 288.77
  A 0.30 0.30 0.0 0 1 209.96 288.61
  L 137.10 147.01
  A 0.30 0.30 0.0 0 0 136.53 147.15
  L 136.53 314.70
  A 0.30 0.30 0.0 0 1 136.23 315.00
  L 79.05 315.00
  A 0.30 0.30 0.0 0 1 78.75 314.70
  L 78.75 79.05
  A 0.30 0.30 0.0 0 1 79.05 78.75
  L 160.87 78.74
  A 0.30 0.30 0.0 0 1 161.14 78.91
  L 235.99 234.45
  A 0.30 0.30 0.0 0 0 236.53 234.45
  L 311.59 78.91
  A 0.30 0.30 0.0 0 1 311.86 78.74
  L 393.45 78.75
  A 0.30 0.30 0.0 0 1 393.75 79.05
  L 393.75 314.70
  A 0.30 0.30 0.0 0 1 393.45 315.00
  L 336.49 315.00
  A 0.30 0.30 0.0 0 1 336.19 314.70
  L 336.19 147.18
  A 0.30 0.30 0.0 0 0 335.62 147.04
  Z"
/>
<path fill="#ffffff" d="
  M 842.40 315.00
  L 785.63 315.00
  A 0.40 0.40 0.0 0 1 785.23 314.60
  L 785.23 126.29
  A 0.40 0.40 0.0 0 0 784.83 125.89
  L 682.59 125.87
  A 0.40 0.40 0.0 0 1 682.19 125.47
  L 682.19 79.15
  A 0.40 0.40 0.0 0 1 682.59 78.75
  L 945.29 78.75
  A 0.40 0.40 0.0 0 1 945.69 79.15
  L 945.69 125.48
  A 0.40 0.40 0.0 0 1 945.29 125.88
  L 843.20 125.89
  A 0.40 0.40 0.0 0 0 842.80 126.29
  L 842.80 314.60
  A 0.40 0.40 0.0 0 1 842.40 315.00
  Z"
/>
<path fill="#ffffff" d="
  M 740.09 844.50
  C 740.85 882.49 763.28 900.69 799.00 903.81
  Q 820.37 905.67 844.50 902.77
  C 866.15 900.16 884.21 890.30 887.93 867.05
  A 0.37 0.36 -85.4 0 1 888.29 866.74
  L 945.00 866.75
  Q 945.52 866.75 945.49 867.27
  C 942.07 912.79 909.73 938.90 867.00 946.24
  Q 828.96 952.77 790.50 949.22
  C 747.46 945.24 709.79 929.20 692.44 887.41
  C 686.69 873.54 683.82 857.31 682.86 842.08
  C 681.34 817.96 682.88 790.96 691.87 768.24
  Q 707.91 727.68 750.27 713.28
  C 784.12 701.77 824.36 701.74 859.75 706.81
  C 894.19 711.74 925.88 726.27 939.45 760.51
  Q 944.34 772.84 945.53 786.95
  Q 945.57 787.52 945.01 787.52
  L 888.73 787.52
  Q 888.17 787.52 888.04 786.98
  Q 887.33 784.22 886.59 781.54
  C 882.21 765.56 869.50 756.19 853.74 752.78
  Q 839.67 749.73 822.50 749.47
  C 793.28 749.02 757.51 752.05 744.77 783.99
  Q 740.50 794.68 740.21 809.50
  Q 739.80 830.44 740.09 844.50
  Z"
/>
</svg>
